<svg width="129" height="245" viewBox="0 0 129 245" fill="none" xmlns="http://www.w3.org/2000/svg">
<path d="M121.3 150.6C119.7 149 117.1 149 115.5 150.6L64.4999 201.7L13.3999 150.6C11.7999 149 9.1999 149 7.5999 150.6C5.9999 152.2 5.9999 154.8 7.5999 156.4L61.4999 210.3C62.2999 211.1 63.2999 211.5 64.3999 211.5C65.3999 211.5 66.4999 211.1 67.2999 210.3L121.2 156.4C122.9 154.8 122.9 152.2 121.3 150.6Z" fill="#3C47AE"/>
<path d="M8.18789 89.8996C9.78789 91.4996 12.3879 91.4996 13.9879 89.8996L64.9879 38.7996L116.088 89.8996C117.688 91.4996 120.288 91.4996 121.888 89.8996C123.488 88.2996 123.488 85.6996 121.888 84.0996L67.9879 30.1996C67.1879 29.3996 66.1879 28.9996 65.0879 28.9996C64.0879 28.9996 62.9879 29.3996 62.1879 30.1996L8.2879 84.0996C6.5879 85.6996 6.58789 88.2996 8.18789 89.8996Z" fill="#3C47AE"/>
</svg>
