<svg width="490" height="490" viewBox="0 0 490 490" fill="none" xmlns="http://www.w3.org/2000/svg">
<g clip-path="url(#clip0)">
<path d="M481.044 382.5C481.044 375.7 475.544 370.2 468.744 370.2H50.0441L123.644 296.6C128.444 291.8 128.444 284.1 123.644 279.3C118.844 274.5 111.144 274.5 106.344 279.3L11.8441 373.8C7.04414 378.6 7.04414 386.3 11.8441 391.1L106.344 485.6C108.744 488 111.844 489.2 115.044 489.2C118.244 489.2 121.344 488 123.744 485.6C128.544 480.8 128.544 473.1 123.744 468.3L50.1441 394.7H468.944C475.544 394.7 481.044 389.3 481.044 382.5Z" fill="#3C47AE"/>
<path d="M477.444 98L382.944 3.6C378.144 -1.2 370.444 -1.2 365.644 3.6C360.844 8.4 360.844 16.1 365.644 20.9L439.244 94.5H20.444C13.644 94.5 8.14404 100 8.14404 106.8C8.14404 113.6 13.644 119.1 20.444 119.1H439.244L365.644 192.5C360.844 197.3 360.844 205 365.644 209.8C368.044 212.2 371.144 213.4 374.344 213.4C377.544 213.4 380.644 212.2 383.044 209.8L477.544 115.3C482.244 110.6 482.244 102.8 477.444 98Z" fill="#3C47AE"/>
</g>
<defs>
<clipPath id="clip0">
<rect width="489.2" height="489.2" fill="white"/>
</clipPath>
</defs>
</svg>
