<svg width="220" height="220" viewBox="0 0 220 220" fill="none" xmlns="http://www.w3.org/2000/svg">
<g clip-path="url(#clip0)">
<path d="M-37.5 251.34V256.652H-32.1876C-21.6099 265.988 -7.71555 271.652 7.5 271.652H211.652C226.869 271.652 240.763 265.987 251.34 256.652H256.652V251.34C265.987 240.763 271.652 226.869 271.652 211.652V7.5C271.652 -7.71555 265.988 -21.6099 256.652 -32.1876V-37.5H251.34C240.763 -46.8351 226.87 -52.5 211.652 -52.5H7.5C-7.71661 -52.5 -21.6103 -46.8354 -32.1873 -37.5H-37.5V-32.1873C-46.8354 -21.6103 -52.5 -7.71661 -52.5 7.5V211.652C-52.5 226.87 -46.8351 240.763 -37.5 251.34ZM67.5 151.652V67.5H151.652V151.652H67.5Z" fill="#3C47AE" stroke="#3C47AE" stroke-width="105"/>
<path d="M53.2351 165.917C54.6991 167.381 56.6191 168.113 58.5381 168.113C60.4571 168.113 62.3771 167.381 63.8411 165.917L109.576 120.184L155.309 165.917C156.774 167.381 158.693 168.113 160.613 168.113C162.532 168.113 164.452 167.381 165.917 165.917C168.846 162.987 168.846 158.239 165.917 155.31L120.185 109.577L165.919 63.8441C168.848 60.9141 168.848 56.1661 165.919 53.2371C162.989 50.3091 158.241 50.3091 155.312 53.2371L109.578 98.9701L63.8421 53.2331C60.9131 50.3051 56.1641 50.3051 53.2361 53.2331C50.3071 56.1631 50.3071 60.9111 53.2361 63.8401L98.9701 109.575L53.2351 155.31C50.3061 158.239 50.3061 162.987 53.2351 165.917Z" fill="white"/>
</g>
<defs>
<clipPath id="clip0">
<rect width="219.152" height="219.152" fill="white"/>
</clipPath>
</defs>
</svg>
