<svg width="512" height="512" viewBox="0 0 512 512" fill="none" xmlns="http://www.w3.org/2000/svg">
<g clip-path="url(#clip0)">
<path d="M466.191 410.422L445.523 403.246C457.094 394.082 464.535 379.926 464.535 364.055V348.906C464.535 321.344 442.109 298.918 414.547 298.918C386.984 298.918 364.559 321.344 364.559 348.906V364.055C364.559 379.926 372.004 394.082 383.574 403.246L362.902 410.422C349.645 415.027 338.5 423.473 330.52 434.242H274.684V412.207C274.684 383.203 256.273 357.324 228.875 347.812L208.203 340.637C219.773 331.473 227.219 317.316 227.219 301.445V286.297C227.219 258.73 204.793 236.309 177.23 236.309C149.668 236.309 127.242 258.734 127.242 286.297V301.445C127.242 317.316 134.688 331.473 146.254 340.637L125.586 347.812C98.1875 357.324 79.7773 383.203 79.7773 412.207V434.242H7.57422C3.39062 434.242 0 437.633 0 441.816V504.426C0 508.609 3.39062 512 7.57422 512H322.652C322.992 512 323.328 511.969 323.66 511.926C323.992 511.969 324.328 512 324.672 512H504.426C508.609 512 512 508.609 512 504.426V474.816C512 445.816 493.594 419.938 466.191 410.422V410.422ZM379.707 348.906C379.707 329.695 395.336 314.066 414.547 314.066C433.758 314.066 449.387 329.695 449.387 348.906V364.055C449.387 383.266 433.758 398.895 414.547 398.895C395.336 398.895 379.707 383.266 379.707 364.055V348.906ZM142.391 286.297C142.391 267.086 158.02 251.457 177.23 251.457C196.441 251.457 212.07 267.086 212.07 286.297V301.445C212.07 320.656 196.441 336.285 177.23 336.285C158.02 336.285 142.391 320.656 142.391 301.445V286.297ZM193.121 351.434L200.48 353.988L177.23 394.328L153.98 353.988L161.34 351.434H193.121ZM94.9258 412.207C94.9258 389.648 109.246 369.52 130.555 362.121L139.414 359.047L170.668 413.281C172.02 415.629 174.523 417.074 177.23 417.074C179.937 417.074 182.441 415.629 183.793 413.281L215.047 359.047L223.906 362.121C245.215 369.52 259.531 389.648 259.531 412.207V434.242H94.9258V412.207ZM15.1484 449.391H322.031C318.836 457.316 317.098 465.918 317.098 474.816V496.852H15.1484V449.391ZM496.852 496.852H332.246V474.816C332.246 452.258 346.562 432.133 367.871 424.73L398.656 414.043H430.438L461.223 424.73C482.535 432.133 496.852 452.258 496.852 474.816V496.852Z" fill="#3C47AE"/>
<path d="M464.031 54.5312H387.094C382.91 54.5312 379.52 57.9258 379.52 62.1055C379.52 66.2891 382.91 69.6797 387.094 69.6797H464.031C482.129 69.6797 496.852 84.4023 496.852 102.504V207.527C496.852 225.625 482.129 240.348 464.031 240.348H360.016C355.832 240.348 352.441 243.738 352.441 247.922V280.133L314.879 242.566C313.457 241.145 311.531 240.348 309.523 240.348H247.922C229.824 240.348 215.098 225.625 215.098 207.527V102.5C215.098 84.4023 229.82 69.6797 247.922 69.6797H351.684C355.867 69.6797 359.258 66.2891 359.258 62.1055C359.258 57.9219 355.867 54.5312 351.684 54.5312H312.047V47.9688C312.047 21.5195 290.527 0 264.078 0H47.9688C21.5195 0 0 21.5195 0 47.9688V64.7148C0 68.8984 3.39062 72.2891 7.57422 72.2891C11.7578 72.2891 15.1484 68.8984 15.1484 64.7148V47.9688C15.1484 29.8711 29.8711 15.1484 47.9688 15.1484H264.078C282.176 15.1484 296.898 29.8711 296.898 47.9688V54.5312H247.922C221.473 54.5312 199.953 76.0508 199.953 102.5V185.812H120.68C116.496 185.812 113.105 189.203 113.105 193.387V225.598L75.543 188.031C74.1211 186.609 72.1953 185.812 70.1875 185.812H47.9688C29.8711 185.812 15.1484 171.09 15.1484 152.992V99.9336C15.1484 95.75 11.7578 92.3594 7.57422 92.3594C3.39062 92.3594 0 95.75 0 99.9336V152.992C0 179.445 21.5195 200.961 47.9688 200.961H67.0469L115.324 249.238C116.773 250.688 118.711 251.457 120.68 251.453C121.656 251.453 122.641 251.266 123.578 250.879C126.406 249.707 128.254 246.945 128.254 243.883V200.961H199.953V207.527C199.953 233.977 221.473 255.492 247.922 255.492H306.387L354.66 303.77C356.109 305.219 358.047 305.988 360.016 305.988C360.992 305.988 361.977 305.801 362.914 305.41C365.742 304.238 367.59 301.477 367.59 298.414V255.492H464.031C490.48 255.492 512 233.977 512 207.527V102.5C512 76.0508 490.48 54.5312 464.031 54.5312Z" fill="#3C47AE"/>
</g>
<defs>
<clipPath id="clip0">
<rect width="512" height="512" fill="white"/>
</clipPath>
</defs>
</svg>
