<svg width="512" height="512" viewBox="0 0 512 512" fill="none" xmlns="http://www.w3.org/2000/svg">
<path d="M468.015 412.53C474.611 405.022 478.624 395.192 478.624 384.437V380.087C478.624 356.585 459.503 337.464 436 337.464C412.497 337.464 393.376 356.585 393.376 380.087V384.437C393.376 395.192 397.389 405.023 403.985 412.53C389.738 418.471 377.822 428.903 370 442.048C362.178 428.903 350.262 418.472 336.015 412.53C342.611 405.022 346.624 395.192 346.624 384.437V380.087C346.624 356.585 327.503 337.464 304 337.464C280.497 337.464 261.376 356.585 261.376 380.087V384.437C261.376 395.192 265.389 405.023 271.985 412.53C257.738 418.471 245.822 428.903 238 442.048C230.178 428.903 218.262 418.472 204.015 412.53C210.611 405.022 214.624 395.192 214.624 384.437V380.087C214.624 356.585 195.503 337.464 172 337.464C148.497 337.464 129.376 356.585 129.376 380.087V384.437C129.376 395.192 133.389 405.023 139.985 412.53C130.884 416.325 122.742 421.959 116 428.956V407V331.323L139.858 320H336.624C342.146 320 346.624 315.522 346.624 310C346.624 304.478 342.146 300 336.624 300H170.623C178.191 293.332 184.971 285.764 190.758 277.427L200.182 263.848L200.181 263.849C207.827 252.833 206.211 237.616 196.422 228.452C190.962 223.341 183.831 220.748 176.374 221.14C168.906 221.536 162.102 224.871 157.213 230.531C142.957 247.036 124.241 258.566 103.088 263.874L100.181 264.603C103.721 258.203 105.744 250.852 105.744 243.035V238.407C105.744 213.756 85.688 193.7 61.037 193.7C36.386 193.7 16.33 213.755 16.33 238.407V243.035C16.33 253.502 19.956 263.133 26.005 270.76C10.774 276.931 0 291.87 0 309.286V407V502C0 507.522 4.478 512 10 512H502C507.522 512 512 507.522 512 502V478.423C512 448.769 493.816 423.29 468.015 412.53ZM413.376 380.087C413.376 367.612 423.525 357.464 436 357.464C448.475 357.464 458.624 367.612 458.624 380.087V384.437C458.624 396.912 448.475 407.061 436 407.061C423.525 407.061 413.376 396.912 413.376 384.437V380.087ZM281.376 380.087C281.376 367.612 291.525 357.464 304 357.464C316.475 357.464 326.624 367.612 326.624 380.087V384.437C326.624 396.912 316.475 407.061 304 407.061C291.525 407.061 281.376 396.912 281.376 384.437V380.087ZM149.376 380.087C149.376 367.612 159.525 357.464 172 357.464C184.475 357.464 194.624 367.612 194.624 380.087V384.437C194.624 396.912 184.475 407.061 172 407.061C159.525 407.061 149.376 396.912 149.376 384.437V380.087ZM36.329 238.408C36.329 224.785 47.413 213.701 61.036 213.701C74.659 213.701 85.743 224.784 85.743 238.408V243.036C85.743 256.491 74.929 267.462 61.536 267.73H60.536C47.143 267.462 36.329 256.491 36.329 243.036V238.408V238.408ZM20 309.286C20 297.399 29.67 287.729 41.557 287.729H60.536C60.703 287.731 88.958 287.729 88.958 287.729C89.778 287.729 90.596 287.628 91.392 287.428L107.955 283.272C133.122 276.957 155.389 263.24 172.35 243.603C173.647 242.102 175.453 241.217 177.434 241.112C179.415 241.002 181.305 241.696 182.754 243.052C185.351 245.483 185.779 249.521 183.751 252.445H183.75L174.327 266.024C163.845 281.127 149.525 293.275 132.918 301.157L101.713 315.967C98.224 317.621 96 321.139 96 325V397H20V309.286ZM20 417H96V478.423V492H68V454.5C68 448.978 63.522 444.5 58 444.5C52.478 444.5 48 448.978 48 454.5V492H20V417ZM116 478.423C116 450.102 139.041 427.061 167.362 427.061H176.637C204.958 427.061 227.999 450.102 227.999 478.423V492H116V478.423ZM248 478.423C248 450.102 271.041 427.061 299.362 427.061H308.637C336.958 427.061 359.999 450.102 359.999 478.423V492H248V478.423ZM492 492H380V478.423C380 450.102 403.041 427.061 431.362 427.061H440.637C468.958 427.061 491.999 450.102 491.999 478.423V492H492Z" fill="#3C47AE"/>
<path d="M376.62 300C373.99 300 371.42 301.069 369.55 302.93C367.69 304.79 366.62 307.37 366.62 310C366.62 312.63 367.689 315.21 369.55 317.069C371.42 318.929 373.99 320 376.62 320C379.26 320 381.83 318.93 383.689 317.069C385.559 315.21 386.62 312.63 386.62 310C386.62 307.37 385.559 304.79 383.689 302.93C381.83 301.069 379.26 300 376.62 300Z" fill="#3C47AE"/>
<path d="M502 0H102C96.478 0 92 4.477 92 10V122C92 127.523 96.478 132 102 132C107.522 132 112 127.523 112 122V20H492V300H416.624C411.102 300 406.624 304.478 406.624 310C406.624 315.522 411.102 320 416.624 320H502C507.522 320 512 315.522 512 310V10C512 4.477 507.522 0 502 0Z" fill="#3C47AE"/>
<path d="M102 172C104.63 172 107.21 170.93 109.069 169.07C110.929 167.21 112 164.63 112 162C112 159.37 110.93 156.79 109.069 154.93C107.21 153.07 104.63 152 102 152C99.37 152 96.79 153.07 94.93 154.93C93.07 156.79 92 159.37 92 162C92 164.63 93.069 167.21 94.93 169.07C96.791 170.93 99.37 172 102 172Z" fill="#3C47AE"/>
<path d="M182 171.374H143.667C138.145 171.374 133.667 175.851 133.667 181.374C133.667 186.897 138.145 191.374 143.667 191.374H192C192.005 191.374 192.011 191.374 192.016 191.374L217.392 191.334C217.39 191.488 217.38 191.64 217.38 191.794C217.38 209.439 231.735 223.794 249.38 223.794C267.025 223.794 281.38 209.439 281.38 191.794C281.38 191.635 281.37 191.478 281.368 191.319H375.286C375.284 191.478 375.274 191.634 375.274 191.794C375.274 209.439 389.629 223.794 407.274 223.794C424.919 223.794 439.274 209.439 439.274 191.794C439.274 191.653 439.265 191.514 439.263 191.374H456C461.522 191.374 466 186.897 466 181.374V146.218C466 123.699 447.68 105.379 425.161 105.379H410.193L391.405 61.123C385.957 48.291 373.43 40 359.49 40H279.277C265.337 40 252.81 48.292 247.363 61.123L228.574 105.379H222.838H167.832C162.31 105.379 157.832 109.856 157.832 115.379C157.832 120.902 162.31 125.379 167.832 125.379H187.735C184.097 131.484 181.999 138.609 181.999 146.218V171.374H182ZM249.38 203.794C242.763 203.794 237.38 198.411 237.38 191.794C237.38 185.177 242.763 179.794 249.38 179.794C255.997 179.794 261.38 185.177 261.38 191.794C261.38 198.411 255.997 203.794 249.38 203.794ZM407.274 203.794C400.657 203.794 395.274 198.411 395.274 191.794C395.274 185.177 400.657 179.794 407.274 179.794C413.891 179.794 419.274 185.177 419.274 191.794C419.274 198.411 413.892 203.794 407.274 203.794ZM446 146.217V171.373H431.891C426.016 164.303 417.163 159.793 407.274 159.793C397.411 159.793 388.579 164.281 382.704 171.318H329.383V125.377H403.573H425.16C436.651 125.378 446 134.727 446 146.217ZM372.995 68.938L388.465 105.378H329.384V60H359.49C365.389 60 370.69 63.508 372.995 68.938ZM265.773 68.938C268.078 63.509 273.378 60 279.277 60H309.383V105.378H250.302L265.773 68.938ZM235.193 125.378H309.383V171.319H273.95C268.075 164.281 259.243 159.794 249.38 159.794C239.516 159.794 230.683 164.283 224.808 171.322L202 171.358V146.217C202 134.726 211.349 125.378 222.839 125.378H235.193V125.378Z" fill="#3C47AE"/>
</svg>
