<svg width="511" height="511" viewBox="0 0 511 511" fill="none" xmlns="http://www.w3.org/2000/svg">
<g clip-path="url(#clip0)">
<path d="M384.275 30.4834C351.235 30.4834 324.357 57.3644 324.357 90.4052C324.357 123.442 351.238 150.323 384.275 150.323C417.312 150.323 444.193 123.442 444.193 90.4052C444.193 57.3644 417.312 30.4834 384.275 30.4834V30.4834ZM384.275 135.118C359.62 135.118 339.562 115.06 339.562 90.4052C339.562 65.7464 359.62 45.688 384.275 45.688C408.93 45.688 428.989 65.7464 428.989 90.4052C428.989 115.06 408.93 135.118 384.275 135.118V135.118Z" fill="#3C47AE"/>
<path d="M480.287 285.406C480.287 285.379 480.291 285.352 480.291 285.328C480.291 285.297 480.287 285.27 480.287 285.243C480.275 249.2 471.53 213.52 455.004 181.75C469.39 154.654 476.985 124.198 476.985 93.3213C476.985 91.6331 476.961 89.9528 476.918 88.2764C476.548 74.1322 473.612 61.0758 468.193 49.4735C466.419 45.6723 461.893 44.0271 458.088 45.801C454.287 47.5787 452.642 52.1011 454.415 55.9062C458.946 65.606 461.402 76.6313 461.718 88.678C461.76 90.218 461.78 91.7657 461.78 93.3174C461.78 151.871 432.903 205.551 384.275 237.867C335.648 205.551 306.771 151.871 306.771 93.3174C306.771 91.7657 306.79 90.218 306.833 88.6741C307.948 46.2493 334.26 28.3273 349.847 21.419C378.513 8.70947 414.345 13.4307 436.985 32.8926C440.166 35.6295 444.965 35.2708 447.706 32.0856C450.443 28.9004 450.08 24.1012 446.895 21.3644C419.538 -2.15208 378.061 -7.71932 343.683 7.5165C318.919 18.495 301.983 38.5183 295.079 64.1206C282.132 61.8243 268.892 60.6469 255.609 60.6469C195.598 60.6469 139.181 84.0191 96.7482 126.456C54.3312 168.877 30.9628 225.266 30.9434 285.25C30.9434 285.278 30.9395 285.301 30.9395 285.328C30.9395 285.356 30.9434 285.379 30.9434 285.406C30.9628 345.391 54.3312 401.78 96.7443 444.197C139.173 486.626 195.586 509.998 255.59 510.002H255.613H255.64C315.644 509.994 372.053 486.626 414.478 444.197C456.899 401.78 480.263 345.391 480.287 285.406ZM181.648 277.726H132.152C132.978 238.381 140.226 200.962 153.068 168.81C182.272 183.812 214.592 192.26 248.011 193.379V277.726H212.062C207.863 277.726 204.459 281.13 204.459 285.328C204.459 289.523 207.863 292.931 212.062 292.931H248.011V377.273C214.592 378.392 182.272 386.841 153.068 401.846C140.226 369.695 132.978 332.276 132.148 292.931H181.648C185.847 292.931 189.251 289.523 189.251 285.328C189.251 281.13 185.851 277.726 181.648 277.726ZM248.015 76.2609V178.167C216.713 177.044 186.459 169.017 159.157 154.834C162.311 148.194 165.719 141.82 169.379 135.762C190.88 100.175 218.565 79.3291 248.015 76.2609ZM263.219 392.486C294.517 393.609 324.771 401.636 352.069 415.823C348.919 422.462 345.511 428.833 341.851 434.891C320.35 470.474 292.669 491.316 263.215 494.388V392.486H263.219ZM263.219 377.273V292.931H379.082C378.252 332.276 371.004 369.695 358.162 401.846C328.958 386.841 296.638 378.388 263.219 377.273V377.273ZM248.015 392.486V494.388C218.561 491.32 190.88 470.474 169.379 434.887C165.719 428.829 162.311 422.458 159.161 415.823C186.459 401.636 216.713 393.609 248.015 392.486ZM156.366 442.751C166.682 459.823 178.401 473.862 191.122 484.626C164.089 475.858 139.446 461.741 118.452 443.515C127.107 436.006 136.288 429.265 145.91 423.336C149.146 430.08 152.631 436.568 156.366 442.751ZM354.864 442.751C358.599 436.568 362.084 430.08 365.32 423.34C374.938 429.269 384.123 436.006 392.774 443.519C371.784 461.741 347.137 475.854 320.108 484.622C332.829 473.858 344.548 459.823 354.864 442.751V442.751ZM371.539 409.305C385.546 374.95 393.437 334.923 394.287 292.931H464.93C462.973 347.519 440.037 396.856 403.94 433.086C393.788 424.147 382.946 416.193 371.539 409.305ZM445.737 197.317C457.363 222.447 463.92 249.886 464.93 277.726H394.287C394.1 268.572 393.581 259.457 392.728 250.494C413.737 236.494 431.819 218.331 445.737 197.317ZM377.558 251.617C378.388 260.206 378.895 268.946 379.082 277.722H263.219V193.387C280.985 192.795 298.529 190.124 315.551 185.422C315.683 185.66 315.804 185.902 315.94 186.14C330.868 212.514 352.139 235.083 377.558 251.617V251.617ZM308.541 171.567C293.765 175.411 278.584 177.629 263.219 178.179V76.2492C272.927 77.2667 282.482 80.2375 291.765 85.1108C291.707 86.1595 291.66 87.2121 291.632 88.2764C291.59 89.9528 291.566 91.6331 291.566 93.3174C291.566 120.385 297.41 147.126 308.541 171.567V171.567ZM156.366 127.898C152.627 134.085 149.146 140.576 145.906 147.321C136.28 141.391 127.095 134.654 118.44 127.142C139.438 108.908 164.089 94.791 191.126 86.0191C178.405 96.7871 166.682 110.826 156.366 127.898ZM107.274 137.571C117.43 146.514 128.276 154.467 139.688 161.356C125.684 195.711 117.793 235.738 116.943 277.726H46.3C48.2571 223.138 71.1888 173.804 107.274 137.571ZM46.3 292.931H116.943C117.797 334.923 125.684 374.946 139.691 409.305C128.284 416.193 117.442 424.147 107.286 433.086C71.1927 396.856 48.2571 347.519 46.3 292.931Z" fill="#3C47AE"/>
</g>
<defs>
<clipPath id="clip0">
<rect width="511" height="511" fill="white"/>
</clipPath>
</defs>
</svg>
