<svg width="34" height="34" viewBox="0 0 34 34" fill="none" xmlns="http://www.w3.org/2000/svg">
<g clip-path="url(#clip0)">
<path d="M16.646 24.7858C16.37 24.7858 16.146 24.5618 16.146 24.2858L16.147 13.0068C16.147 12.7308 16.371 12.5068 16.647 12.5068C16.923 12.5068 17.147 12.7308 17.147 13.0068L17.146 24.2858C17.146 24.5618 16.922 24.7858 16.646 24.7858Z" fill="black"/>
<path d="M16.6458 24.7859C16.5178 24.7859 16.3898 24.7369 16.2918 24.6399L11.9788 20.3269C11.7838 20.1319 11.7838 19.8149 11.9788 19.6199C12.1738 19.4249 12.4908 19.4249 12.6858 19.6199L16.6448 23.5789L20.6038 19.6199C20.7988 19.4249 21.1158 19.4249 21.3108 19.6199C21.5058 19.8149 21.5058 20.1319 21.3108 20.3269L16.9978 24.6399C16.9018 24.7369 16.7738 24.7859 16.6458 24.7859Z" fill="black"/>
<path d="M27.5778 33.293H5.71484C4.33684 33.293 3.21484 32.172 3.21484 30.793V2.5C3.21484 1.121 4.33684 0 5.71484 0H21.5918C21.8678 0 22.0918 0.224 22.0918 0.5C22.0918 0.776 21.8678 1 21.5918 1H5.71484C4.88784 1 4.21484 1.673 4.21484 2.5V30.793C4.21484 31.62 4.88784 32.293 5.71484 32.293H27.5778C28.4048 32.293 29.0778 31.62 29.0778 30.793V8.704C29.0778 8.428 29.3018 8.204 29.5778 8.204C29.8538 8.204 30.0778 8.428 30.0778 8.704V30.794C30.0778 32.172 28.9568 33.293 27.5778 33.293Z" fill="black"/>
<path d="M29.5778 9.2038H21.5918C21.3158 9.2038 21.0918 8.9798 21.0918 8.7038V0.716797C21.0918 0.440797 21.3158 0.216797 21.5918 0.216797C21.8678 0.216797 22.0918 0.440797 22.0918 0.716797V8.2028H29.5778C29.8538 8.2028 30.0778 8.4268 30.0778 8.7028C30.0778 8.9788 29.8548 9.2038 29.5778 9.2038Z" fill="black"/>
<path d="M29.5781 9.20414C29.4481 9.20414 29.3181 9.15314 29.2201 9.05314L21.2341 0.850144C21.0421 0.653144 21.0461 0.335144 21.2441 0.143144C21.4411 -0.0498562 21.7581 -0.0448562 21.9511 0.153144L29.9371 8.35614C30.1291 8.55314 30.1251 8.87114 29.9271 9.06314C29.8301 9.15714 29.7041 9.20414 29.5781 9.20414Z" fill="black"/>
</g>
<defs>
<clipPath id="clip0">
<rect width="33.293" height="33.293" fill="white"/>
</clipPath>
</defs>
</svg>
