<svg width="54" height="54" viewBox="0 0 54 54" fill="none" xmlns="http://www.w3.org/2000/svg">
<g clip-path="url(#clip0)">
<path d="M6.19476 48.263C6.36976 48.908 6.78576 49.445 7.36476 49.776L13.0308 53.018C13.4218 53.242 13.8468 53.348 14.2678 53.348C15.1358 53.348 15.9808 52.896 16.4418 52.09L26.0218 35.347C27.1278 35.561 28.2548 35.673 29.3858 35.673C35.7738 35.673 41.7108 32.232 44.8798 26.694C47.2458 22.559 47.8598 17.751 46.6088 13.154C45.3578 8.557 42.3918 4.723 38.2578 2.358C35.5618 0.815 32.5048 0 29.4158 0C23.0278 0 17.0918 3.441 13.9218 8.979C10.0408 15.762 11.1348 24.038 16.0248 29.606L6.43676 46.363C6.10476 46.944 6.01876 47.619 6.19476 48.263ZM21.4118 37.364L16.6138 34.619L18.2628 31.737C18.9758 32.308 19.7258 32.847 20.5438 33.315C21.3498 33.776 22.1918 34.164 23.0538 34.493L21.4118 37.364ZM16.5258 10.47C19.1628 5.863 24.1018 3 29.4158 3C31.9828 3 34.5248 3.678 36.7668 4.961C40.2068 6.929 42.6728 10.118 43.7138 13.941C44.7538 17.764 44.2438 21.764 42.2758 25.203C39.6398 29.81 34.6998 32.673 29.3858 32.673C26.8188 32.673 24.2768 31.995 22.0338 30.712C14.9348 26.65 12.4638 17.569 16.5258 10.47ZM15.1248 37.223L19.9228 39.968L14.0878 50.167L9.28976 47.422L15.1248 37.223Z" fill="white"/>
<path d="M23.0845 28.8772C25.0065 29.9772 27.1875 30.5582 29.3895 30.5582C33.9455 30.5582 38.1805 28.1042 40.4405 24.1542C43.9235 18.0672 41.8045 10.2812 35.7175 6.79819C33.7955 5.69819 31.6145 5.11719 29.4125 5.11719C24.8565 5.11719 20.6225 7.57119 18.3615 11.5212C16.6745 14.4702 16.2365 17.8992 17.1285 21.1772C18.0205 24.4552 20.1355 27.1892 23.0845 28.8772ZM19.2295 12.0172C21.3115 8.37719 25.2135 6.11619 29.4125 6.11619C31.4405 6.11619 33.4495 6.65219 35.2215 7.66519C40.8295 10.8742 42.7825 18.0472 39.5735 23.6562C37.4905 27.2962 33.5885 29.5572 29.3905 29.5572C27.3625 29.5572 25.3535 29.0212 23.5825 28.0082C20.8655 26.4532 18.9165 23.9342 18.0945 20.9132C17.2715 17.8932 17.6745 14.7332 19.2295 12.0172Z" fill="white"/>
</g>
<defs>
<clipPath id="clip0">
<rect width="53.348" height="53.348" fill="white"/>
</clipPath>
</defs>
</svg>
