<svg width="512" height="512" viewBox="0 0 512 512" fill="none" xmlns="http://www.w3.org/2000/svg">
<path d="M230.4 324.267H366.933C371.643 324.267 375.466 320.444 375.466 315.734C375.466 311.024 371.643 307.201 366.933 307.201H230.4C225.69 307.201 221.867 311.024 221.867 315.734C221.867 320.444 225.69 324.267 230.4 324.267Z" fill="white"/>
<path d="M349.867 256H298.667C293.957 256 290.134 259.823 290.134 264.533C290.134 269.243 293.957 273.066 298.667 273.066H349.867C354.577 273.066 358.4 269.243 358.4 264.533C358.4 259.823 354.577 256 349.867 256Z" fill="white"/>
<path d="M128 153.6H213.333C218.043 153.6 221.866 149.777 221.866 145.067C221.866 140.357 218.043 136.534 213.333 136.534H128C123.29 136.534 119.467 140.357 119.467 145.067C119.467 149.777 123.29 153.6 128 153.6Z" fill="white"/>
<path d="M128 273.067H196.267C200.977 273.067 204.8 269.244 204.8 264.534C204.8 259.824 200.977 256.001 196.267 256.001H128C123.29 256.001 119.467 259.824 119.467 264.534C119.467 269.244 123.29 273.067 128 273.067Z" fill="white"/>
<path d="M469.333 119.467H384C369.886 119.467 358.4 107.981 358.4 93.867V51.2C358.4 46.49 354.577 42.667 349.867 42.667C345.157 42.667 341.334 46.49 341.334 51.2V93.867C341.334 117.393 360.474 136.534 384.001 136.534H460.801V469.334C460.801 483.448 449.315 494.934 435.201 494.934H76.7998C62.6858 494.934 51.1998 483.448 51.1998 469.334V42.667C51.1998 28.553 62.6858 17.067 76.7998 17.067H346.334L429.167 99.9C432.504 103.237 437.897 103.237 441.233 99.9C444.569 96.564 444.569 91.17 441.233 87.834L355.9 2.5C354.304 0.896 352.128 0 349.867 0H76.7998C53.2738 0 34.1328 19.14 34.1328 42.667V469.334C34.1328 492.86 53.2738 512 76.7998 512H435.2C458.726 512 477.867 492.86 477.867 469.333V128C477.867 123.29 474.044 119.467 469.333 119.467Z" fill="white"/>
<path d="M128 221.867H281.6C286.31 221.867 290.133 218.044 290.133 213.334C290.133 208.624 286.31 204.801 281.6 204.801H128C123.29 204.801 119.467 208.624 119.467 213.334C119.467 218.044 123.29 221.867 128 221.867Z" fill="white"/>
<path d="M230.4 273.067H264.533C269.243 273.067 273.066 269.244 273.066 264.534C273.066 259.824 269.243 256.001 264.533 256.001H230.4C225.69 256.001 221.867 259.824 221.867 264.534C221.867 269.244 225.69 273.067 230.4 273.067Z" fill="white"/>
<path d="M264.533 426.667H349.866C354.576 426.667 358.399 422.844 358.399 418.134C358.399 413.424 354.576 409.601 349.866 409.601H264.533C259.823 409.601 256 413.424 256 418.134C256 422.844 259.823 426.667 264.533 426.667Z" fill="white"/>
<path d="M392.533 366.933C392.533 362.223 388.71 358.4 384 358.4H332.8C328.09 358.4 324.267 362.223 324.267 366.933C324.267 371.643 328.09 375.466 332.8 375.466H384C388.71 375.467 392.533 371.644 392.533 366.933Z" fill="white"/>
<path d="M384 204.8H315.733C311.023 204.8 307.2 208.623 307.2 213.333C307.2 218.043 311.023 221.866 315.733 221.866H384C388.71 221.866 392.533 218.043 392.533 213.333C392.533 208.623 388.71 204.8 384 204.8Z" fill="white"/>
<path d="M128 426.667H230.4C235.11 426.667 238.933 422.844 238.933 418.134C238.933 413.424 235.11 409.601 230.4 409.601H128C123.29 409.601 119.467 413.424 119.467 418.134C119.467 422.844 123.29 426.667 128 426.667Z" fill="white"/>
<path d="M128 375.467H179.2C183.91 375.467 187.733 371.644 187.733 366.934C187.733 362.224 183.91 358.401 179.2 358.401H128C123.29 358.401 119.467 362.224 119.467 366.934C119.467 371.644 123.29 375.467 128 375.467Z" fill="white"/>
<path d="M307.2 366.933C307.2 362.223 303.377 358.4 298.667 358.4H213.334C208.624 358.4 204.801 362.223 204.801 366.933C204.801 371.643 208.624 375.466 213.334 375.466H298.667C303.377 375.467 307.2 371.644 307.2 366.933Z" fill="white"/>
<path d="M128 324.267H196.267C200.977 324.267 204.8 320.444 204.8 315.734C204.8 311.024 200.977 307.201 196.267 307.201H128C123.29 307.201 119.467 311.024 119.467 315.734C119.467 320.444 123.29 324.267 128 324.267Z" fill="white"/>
</svg>
