<svg width="905" height="511" viewBox="0 0 905 511" fill="none" xmlns="http://www.w3.org/2000/svg">
<rect x="303" y="49" width="586" height="262" fill="#3C47AE"/>
<path d="M74 232.5C70.3411 232.5 66.7643 233.526 63.722 235.449C60.6797 237.372 58.3085 240.105 56.9082 243.303C55.508 246.501 55.1417 250.019 55.8555 253.414C56.5693 256.809 58.3313 259.927 60.9185 262.374C63.5058 264.822 66.8022 266.489 70.3908 267.164C73.9795 267.839 77.6992 267.492 81.0797 266.168C84.4601 264.843 87.3494 262.6 89.3822 259.722C91.415 256.845 92.5 253.461 92.5 250C92.4945 245.36 90.5436 240.912 87.0754 237.631C83.6072 234.351 78.9048 232.505 74 232.5V232.5ZM74 258.75C72.1705 258.75 70.3821 258.237 68.861 257.275C67.3398 256.314 66.1542 254.947 65.4541 253.348C64.754 251.75 64.5708 249.99 64.9277 248.293C65.2847 246.596 66.1656 245.037 67.4593 243.813C68.7529 242.589 70.4011 241.756 72.1954 241.418C73.9897 241.081 75.8496 241.254 77.5398 241.916C79.2301 242.578 80.6747 243.7 81.6911 245.139C82.7075 246.578 83.25 248.269 83.25 250C83.2476 252.32 82.2722 254.544 80.538 256.185C78.8039 257.825 76.4525 258.748 74 258.75Z" fill="#3C47AE"/>
<path d="M222 232.5C218.341 232.5 214.764 233.526 211.722 235.449C208.68 237.372 206.308 240.105 204.908 243.303C203.508 246.501 203.142 250.019 203.855 253.414C204.569 256.809 206.331 259.927 208.919 262.374C211.506 264.822 214.802 266.489 218.391 267.164C221.979 267.839 225.699 267.492 229.08 266.168C232.46 264.843 235.349 262.6 237.382 259.722C239.415 256.845 240.5 253.461 240.5 250C240.495 245.36 238.544 240.912 235.075 237.631C231.607 234.351 226.905 232.505 222 232.5V232.5ZM222 258.75C220.171 258.75 218.382 258.237 216.861 257.275C215.34 256.314 214.154 254.947 213.454 253.348C212.754 251.75 212.571 249.99 212.928 248.293C213.285 246.596 214.166 245.037 215.459 243.813C216.753 242.589 218.401 241.756 220.195 241.418C221.99 241.081 223.85 241.254 225.54 241.916C227.23 242.578 228.675 243.7 229.691 245.139C230.708 246.578 231.25 248.269 231.25 250C231.248 252.32 230.272 254.544 228.538 256.185C226.804 257.825 224.453 258.748 222 258.75Z" fill="#3C47AE"/>
<path d="M69.375 83.75C74.4836 83.75 78.625 79.8325 78.625 75C78.625 70.1675 74.4836 66.25 69.375 66.25C64.2664 66.25 60.125 70.1675 60.125 75C60.125 79.8325 64.2664 83.75 69.375 83.75Z" fill="#121212"/>
<path d="M97.125 83.75C102.234 83.75 106.375 79.8325 106.375 75C106.375 70.1675 102.234 66.25 97.125 66.25C92.0164 66.25 87.875 70.1675 87.875 75C87.875 79.8325 92.0164 83.75 97.125 83.75Z" fill="#3C47AE"/>
<path d="M198.875 83.75C203.984 83.75 208.125 79.8325 208.125 75C208.125 70.1675 203.984 66.25 198.875 66.25C193.766 66.25 189.625 70.1675 189.625 75C189.625 79.8325 193.766 83.75 198.875 83.75Z" fill="#3C47AE"/>
<path d="M226.625 83.75C231.734 83.75 235.875 79.8325 235.875 75C235.875 70.1675 231.734 66.25 226.625 66.25C221.516 66.25 217.375 70.1675 217.375 75C217.375 79.8325 221.516 83.75 226.625 83.75Z" fill="#121212"/>
<path d="M272.875 118.75H259V79.375C258.99 71.2555 255.576 63.4713 249.507 57.7299C243.438 51.9886 235.208 48.7591 226.625 48.75H69.375C60.7916 48.7591 52.5625 51.9886 46.4931 57.7299C40.4237 63.4713 37.0096 71.2555 37 79.375V118.75H23.125C19.4464 118.754 15.9196 120.138 13.3185 122.599C10.7173 125.059 9.25413 128.395 9.25 131.875V175.625C9.25413 179.105 10.7173 182.441 13.3185 184.901C15.9196 187.362 19.4464 188.746 23.125 188.75H37V298.125C37.0041 301.605 38.4673 304.941 41.0685 307.401C43.6696 309.862 47.1964 311.246 50.875 311.25H87.875C91.5536 311.246 95.0804 309.862 97.6815 307.401C100.283 304.941 101.746 301.605 101.75 298.125V285H194.25V298.125C194.254 301.605 195.717 304.941 198.318 307.401C200.92 309.862 204.446 311.246 208.125 311.25H245.125C248.804 311.246 252.33 309.862 254.932 307.401C257.533 304.941 258.996 301.605 259 298.125V188.75H272.875C276.554 188.746 280.08 187.362 282.682 184.901C285.283 182.441 286.746 179.105 286.75 175.625V131.875C286.746 128.395 285.283 125.059 282.682 122.599C280.08 120.138 276.554 118.754 272.875 118.75V118.75ZM218.602 215L202.415 206.25H222V197.5H157.25V206.25H183.773L199.96 215H116.852L100.665 206.25H120.25V197.5H55.5V206.25H82.0226L98.2101 215H55.5C53.0475 214.998 50.6961 214.075 48.962 212.435C47.2278 210.794 46.2524 208.57 46.25 206.25V110C46.2524 107.68 47.2278 105.456 48.962 103.815C50.6961 102.175 53.0475 101.252 55.5 101.25H240.5C242.953 101.252 245.304 102.175 247.038 103.815C248.772 105.456 249.748 107.68 249.75 110V206.25C249.748 208.57 248.772 210.794 247.038 212.435C245.304 214.075 242.953 214.998 240.5 215H218.602ZM69.375 57.5H226.625C232.756 57.5068 238.634 59.8137 242.969 63.9146C247.304 68.0154 249.743 73.5755 249.75 79.375V94.9347C246.951 93.3581 243.758 92.5175 240.5 92.5H55.5C52.2424 92.5175 49.049 93.3581 46.25 94.9347V79.375C46.2572 73.5755 48.6959 68.0154 53.0311 63.9146C57.3663 59.8137 63.2441 57.5068 69.375 57.5V57.5ZM23.125 180C21.8989 179.998 20.7235 179.537 19.8565 178.717C18.9895 177.897 18.5017 176.785 18.5 175.625V131.875C18.5017 130.715 18.9895 129.603 19.8565 128.783C20.7235 127.963 21.8989 127.502 23.125 127.5H37V180H23.125ZM46.25 298.125V280.516C48.9731 282.504 52.1346 283.887 55.5 284.563V302.5H50.875C49.6489 302.498 48.4735 302.037 47.6065 301.217C46.7395 300.397 46.2517 299.285 46.25 298.125V298.125ZM64.75 285H74V302.5H64.75V285ZM92.5 298.125C92.4983 299.285 92.0105 300.397 91.1435 301.217C90.2765 302.037 89.1011 302.498 87.875 302.5H83.25V285H92.5V298.125ZM203.5 298.125V285H212.75V302.5H208.125C206.899 302.498 205.723 302.037 204.856 301.217C203.99 300.397 203.502 299.285 203.5 298.125V298.125ZM231.25 302.5H222V285H231.25V302.5ZM245.125 302.5H240.5V284.558C243.865 283.883 247.027 282.499 249.75 280.511V298.125C249.748 299.285 249.26 300.397 248.394 301.217C247.527 302.037 246.351 302.498 245.125 302.5V302.5ZM235.875 276.25H60.125C56.4464 276.246 52.9196 274.862 50.3185 272.401C47.7173 269.941 46.2541 266.605 46.25 263.125V221.315C49.049 222.892 52.2424 223.732 55.5 223.75H240.5C243.758 223.732 246.951 222.892 249.75 221.315V263.125C249.746 266.605 248.283 269.941 245.682 272.401C243.08 274.862 239.554 276.246 235.875 276.25V276.25ZM277.5 175.625C277.498 176.785 277.01 177.897 276.144 178.717C275.277 179.537 274.101 179.998 272.875 180H259V127.5H272.875C274.101 127.502 275.277 127.963 276.144 128.783C277.01 129.603 277.498 130.715 277.5 131.875V175.625Z" fill="#121212"/>
<path d="M55.5 110H64.75V118.75H55.5V110Z" fill="#121212"/>
<path d="M55.5 127.5H64.75V180H55.5V127.5Z" fill="#121212"/>
<path d="M101.75 236.875H194.25V245.625H101.75V236.875Z" fill="#3C47AE"/>
<path d="M101.75 254.375H194.25V263.125H101.75V254.375Z" fill="#3C47AE"/>
<path d="M345.726 184.176C345.726 171.632 348.265 160.656 353.342 151.248C358.42 141.691 365.364 134.299 374.174 129.072C383.134 123.845 393.065 121.232 403.966 121.232C414.718 121.232 424.052 123.547 431.966 128.176C439.881 132.805 445.78 138.629 449.662 145.648V123.248H470.27V246H449.662V223.152C445.63 230.32 439.582 236.293 431.518 241.072C423.604 245.701 414.345 248.016 403.742 248.016C392.841 248.016 382.985 245.328 374.174 239.952C365.364 234.576 358.42 227.035 353.342 217.328C348.265 207.621 345.726 196.571 345.726 184.176ZM449.662 184.4C449.662 175.141 447.796 167.077 444.062 160.208C440.329 153.339 435.252 148.112 428.83 144.528C422.558 140.795 415.614 138.928 407.998 138.928C400.382 138.928 393.438 140.72 387.166 144.304C380.894 147.888 375.892 153.115 372.158 159.984C368.425 166.853 366.558 174.917 366.558 184.176C366.558 193.584 368.425 201.797 372.158 208.816C375.892 215.685 380.894 220.987 387.166 224.72C393.438 228.304 400.382 230.096 407.998 230.096C415.614 230.096 422.558 228.304 428.83 224.72C435.252 220.987 440.329 215.685 444.062 208.816C447.796 201.797 449.662 193.659 449.662 184.4ZM611.341 123.248V246H590.957V227.856C587.075 234.128 581.624 239.056 574.605 242.64C567.736 246.075 560.12 247.792 551.757 247.792C542.2 247.792 533.613 245.851 525.997 241.968C518.381 237.936 512.333 231.963 507.853 224.048C503.523 216.133 501.357 206.501 501.357 195.152V123.248H521.517V192.464C521.517 204.56 524.579 213.893 530.701 220.464C536.824 226.885 545.187 230.096 555.789 230.096C566.691 230.096 575.277 226.736 581.549 220.016C587.821 213.296 590.957 203.515 590.957 190.672V123.248H611.341ZM668.383 140.048V212.4C668.383 218.373 669.652 222.629 672.191 225.168C674.729 227.557 679.135 228.752 685.407 228.752H700.415V246H682.047C670.697 246 662.185 243.387 656.511 238.16C650.836 232.933 647.999 224.347 647.999 212.4V140.048H632.095V123.248H647.999V92.336H668.383V123.248H700.415V140.048H668.383ZM776.408 248.016C764.91 248.016 754.456 245.403 745.048 240.176C735.79 234.949 728.472 227.557 723.096 218C717.87 208.293 715.256 197.093 715.256 184.4C715.256 171.856 717.944 160.805 723.32 151.248C728.846 141.541 736.312 134.149 745.72 129.072C755.128 123.845 765.656 121.232 777.304 121.232C788.952 121.232 799.48 123.845 808.888 129.072C818.296 134.149 825.688 141.467 831.064 151.024C836.59 160.581 839.352 171.707 839.352 184.4C839.352 197.093 836.515 208.293 830.84 218C825.315 227.557 817.774 234.949 808.216 240.176C798.659 245.403 788.056 248.016 776.408 248.016ZM776.408 230.096C783.726 230.096 790.595 228.379 797.016 224.944C803.438 221.509 808.59 216.357 812.472 209.488C816.504 202.619 818.52 194.256 818.52 184.4C818.52 174.544 816.579 166.181 812.696 159.312C808.814 152.443 803.736 147.365 797.464 144.08C791.192 140.645 784.398 138.928 777.08 138.928C769.614 138.928 762.744 140.645 756.472 144.08C750.35 147.365 745.422 152.443 741.688 159.312C737.955 166.181 736.088 174.544 736.088 184.4C736.088 194.405 737.88 202.843 741.464 209.712C745.198 216.581 750.126 221.733 756.248 225.168C762.371 228.453 769.091 230.096 776.408 230.096Z" fill="white"/>
<circle cx="776.712" cy="184.586" r="59.1271" transform="rotate(-6 776.712 184.586)" stroke="white" stroke-width="16"/>
<circle cx="777" cy="185" r="12" fill="white"/>
<circle cx="777" cy="185" r="12" stroke="white"/>
<path d="M127.412 457H112.154V370.357H82.2745C80.6398 391.912 78.3693 409.017 75.463 421.671C72.5568 434.325 68.7726 443.589 64.1105 449.462C59.5089 455.335 53.6359 458.271 46.4913 458.271C43.2218 458.271 40.6183 457.908 38.6808 457.182V446.011C40.0128 446.374 41.5265 446.556 43.2218 446.556C50.1847 446.556 55.7247 439.199 59.8419 424.486C63.9591 409.773 67.0773 387.432 69.1964 357.461H127.412V457ZM172.71 357.461V420.581L172.074 437.11L171.802 442.287L225.658 357.461H244.458V457H230.381V396.15L230.653 384.162L231.107 372.355L177.342 457H158.542V357.461H172.71ZM372.583 491.421H357.507V457H275.497V357.461H290.573V444.013H343.43V357.461H358.506V444.013H372.583V491.421ZM433.048 458.816C418.335 458.816 406.71 454.336 398.173 445.375C389.696 436.414 385.458 423.972 385.458 408.048C385.458 392.003 389.394 379.258 397.265 369.812C405.196 360.367 415.822 355.645 429.143 355.645C441.615 355.645 451.485 359.762 458.75 367.996C466.016 376.17 469.649 386.978 469.649 400.419V409.955H401.079C401.382 421.641 404.319 430.511 409.889 436.565C415.52 442.62 423.421 445.647 433.593 445.647C444.31 445.647 454.905 443.407 465.38 438.927V452.368C460.052 454.669 454.996 456.304 450.213 457.272C445.49 458.302 439.769 458.816 433.048 458.816ZM428.961 368.269C420.969 368.269 414.581 370.872 409.798 376.079C405.075 381.286 402.29 388.491 401.443 397.694H453.483C453.483 388.188 451.363 380.923 447.125 375.897C442.887 370.812 436.832 368.269 428.961 368.269ZM509.588 357.461V399.147H565.351V357.461H580.428V457H565.351V412.135H509.588V457H494.512V357.461H509.588ZM630.448 398.784C649.278 398.784 658.693 393.577 658.693 383.163C658.693 373.354 651.064 368.45 635.806 368.45C631.144 368.45 626.906 368.874 623.091 369.722C619.277 370.569 614.282 372.265 608.106 374.808L602.748 362.547C613.041 357.945 624.272 355.645 636.442 355.645C647.885 355.645 656.907 358.006 663.506 362.729C670.106 367.391 673.406 373.778 673.406 381.892C673.406 393.032 667.2 400.328 654.788 403.779V404.506C662.417 406.746 667.987 409.955 671.499 414.133C675.01 418.25 676.766 423.427 676.766 429.663C676.766 438.866 673.042 446.041 665.595 451.188C658.208 456.273 647.976 458.816 634.898 458.816C620.548 458.816 609.468 456.667 601.658 452.368V438.563C612.738 443.771 623.939 446.374 635.261 446.374C643.98 446.374 650.549 444.891 654.969 441.924C659.45 438.896 661.69 434.567 661.69 428.937C661.69 417.372 652.275 411.59 633.445 411.59H619.64V398.784H630.448ZM714.616 357.461V420.581L713.981 437.11L713.708 442.287L767.565 357.461H786.364V457H772.287V396.15L772.56 384.162L773.014 372.355L719.248 457H700.448V357.461H714.616ZM822.398 457H804.779L833.388 414.95C825.698 413.255 819.795 409.985 815.678 405.142C811.621 400.237 809.593 394.092 809.593 386.705C809.593 377.623 812.65 370.479 818.766 365.271C824.881 360.064 833.418 357.461 844.377 357.461H888.697V457H873.621V417.221H848.464L822.398 457ZM824.306 386.887C824.306 398.391 832.661 404.143 849.372 404.143H873.621V370.539H846.284C831.632 370.539 824.306 375.988 824.306 386.887Z" fill="black"/>
</svg>
