<svg width="429" height="429" viewBox="0 0 429 429" fill="none" xmlns="http://www.w3.org/2000/svg">
<g clip-path="url(#clip0)">
<path d="M301.931 186.124L301.947 186.397C303.004 204.91 292.633 222.253 275.52 230.568L275.345 230.654C269.312 233.54 264.366 238.298 261.246 244.214L261.176 244.343C252.553 260.761 234.719 270.714 215.706 269.716L215.418 269.7C208.523 269.314 201.678 271.092 195.844 274.79C179.745 284.859 159.309 284.859 143.21 274.79C137.375 271.092 130.531 269.314 123.636 269.7L123.347 269.716C104.366 270.722 86.5081 260.761 77.8658 244.315L77.8229 244.226C74.6912 238.294 69.7343 233.528 63.6815 230.638L63.5411 230.568C46.4281 222.249 36.0541 204.91 37.1149 186.393L37.1305 186.135C37.4815 179.615 35.6719 173.16 31.9747 167.774C21.3317 152.252 21.3317 131.785 31.9708 116.26C35.6641 110.878 37.4815 104.427 37.1305 97.9062L37.1149 97.6332C36.0541 79.1162 46.4281 61.7769 63.5567 53.4543L63.7127 53.3763C69.7343 50.4981 74.6678 45.7636 77.7917 39.8629L77.8814 39.6874C86.5081 23.2685 104.366 13.3197 123.347 14.3142L123.64 14.3298C130.531 14.7159 137.375 12.9375 143.206 9.24029H143.214C159.313 -0.829446 179.749 -0.829446 195.848 9.24029C201.682 12.9336 208.527 14.712 215.422 14.3259L215.71 14.3103C234.695 13.3041 252.55 23.2646 261.172 39.6796L261.239 39.8005C264.363 45.7285 269.312 50.4903 275.353 53.3802L275.517 53.4582C292.63 61.773 303.004 79.1162 301.943 97.6332L301.927 97.8906C301.576 104.411 303.386 110.866 307.083 116.248C317.726 131.774 317.726 152.245 307.083 167.766C303.39 173.148 301.576 179.603 301.931 186.124V186.124ZM293.936 125.319C288.23 117.012 285.434 107.052 285.98 96.9897L285.996 96.7167C286.557 84.4474 279.67 73.0517 268.551 67.8374L268.415 67.7711C259.293 63.4031 251.824 56.2116 247.113 47.2651L247.035 47.1169C241.306 36.2047 229.306 29.5904 216.561 30.269L216.28 30.2807C206.081 30.854 195.961 28.2254 187.334 22.7576C176.442 15.9443 162.62 15.9443 151.727 22.7576C143.101 28.2176 132.98 30.8501 122.786 30.2846L122.505 30.269C109.697 29.5982 97.7556 36.2047 92.0422 47.0857L91.9369 47.2846C87.2257 56.2194 79.765 63.3992 70.6547 67.7633L70.5221 67.8296C59.2278 73.3208 52.3716 84.658 53.0619 96.7206L53.0775 97.0053C53.6235 107.067 50.8233 117.024 45.1177 125.331C38.2225 135.389 38.2264 148.649 45.1255 158.703C50.8272 167.014 53.6235 176.974 53.0775 187.036L53.0619 187.305C52.3716 199.368 59.2278 210.709 70.526 216.204L70.643 216.259C79.7728 220.635 87.2491 227.834 91.9642 236.796L92.0227 236.913C97.7556 247.825 109.736 254.443 122.501 253.761L122.778 253.745C132.976 253.176 143.101 255.808 151.731 261.272C162.62 268.082 176.442 268.082 187.33 261.272C195.177 256.3 204.28 253.663 213.569 253.671C214.47 253.671 215.375 253.695 216.28 253.745L216.561 253.757C229.138 254.557 241.037 247.973 247.047 236.894L247.129 236.741C251.832 227.811 259.289 220.635 268.395 216.27L268.543 216.196C279.842 210.705 286.698 199.364 286.004 187.305L285.988 187.021C285.446 176.959 288.246 166.998 293.948 158.695C300.839 148.637 300.835 135.377 293.936 125.327V125.319Z" fill="#FFDB1E"/>
<path d="M221.065 224.585C217.325 226.921 212.399 225.779 210.063 222.039L115.446 70.4622C113.902 68.0403 113.773 64.9749 115.114 62.436C116.456 59.8932 119.061 58.2709 121.932 58.1812C124.802 58.0915 127.501 59.55 128.998 62.0031L223.612 213.58C225.948 217.324 224.809 222.249 221.065 224.585V224.585Z" fill="#FFDB1E"/>
<path d="M212.587 142.409C193.137 142.409 177.311 124.364 177.311 102.185C177.311 80.0054 193.137 61.9641 212.587 61.9641C232.036 61.9641 247.858 80.0054 247.858 102.185C247.858 124.364 232.036 142.409 212.587 142.409ZM212.587 77.9384C201.944 77.9384 193.286 88.8154 193.286 102.185C193.286 115.554 201.944 126.435 212.587 126.435C223.226 126.435 231.884 115.55 231.884 102.185C231.884 88.8193 223.226 77.9384 212.587 77.9384Z" fill="#FFDB1E"/>
<path d="M161.746 181.853C161.746 204.032 145.924 222.074 126.475 222.074C107.026 222.074 91.1997 204.029 91.1997 181.853C91.1997 159.682 107.022 141.633 126.471 141.633C145.924 141.633 161.746 159.67 161.746 181.853V181.853ZM107.174 181.853C107.174 195.222 115.832 206.099 126.475 206.099C137.114 206.099 145.772 195.222 145.772 181.853C145.772 168.484 137.114 157.607 126.475 157.607C115.832 157.607 107.174 168.476 107.174 181.853Z" fill="#FFDB1E"/>
<path d="M1.03632 314.484C11.613 295.713 35.0675 288.564 54.3139 298.244L116.881 327.806C125.52 311.742 142.091 301.516 160.327 301.001L218.086 299.41C227.231 299.149 236.205 296.828 244.336 292.632L250.214 289.586C280.306 273.9 316.174 273.939 346.235 289.688L345.868 276.373C345.747 271.962 349.222 268.288 353.633 268.167L416.969 266.424C421.38 266.303 425.049 269.778 425.17 274.189L428.996 413.18C429.117 417.591 425.642 421.265 421.231 421.386L357.896 423.129H357.673C353.348 423.125 349.811 419.682 349.69 415.36L349.511 408.711L333.057 399.901C326.598 396.426 319.044 395.599 311.989 397.596L213.737 425.173C213.565 425.223 213.394 425.262 213.218 425.301C206.117 426.787 198.878 427.532 191.62 427.528C176.254 427.536 161.068 424.225 147.102 417.813C146.759 417.657 146.427 417.478 146.112 417.275L3.6532 325.123C0.100321 322.83 -1.04627 318.161 1.03632 314.484V314.484ZM412.807 405.634L409.422 282.617L362.053 283.919L365.442 406.94L412.807 405.634ZM154.301 403.54C171.652 411.371 191.031 413.531 209.681 409.717L307.672 382.218C318.697 379.098 330.506 380.393 340.595 385.818L349.004 390.319L346.75 308.524C320.109 290.803 285.937 288.982 257.561 303.766L251.684 306.812C241.411 312.116 230.078 315.045 218.522 315.377L160.764 316.968C144.54 317.432 130.761 328.984 127.47 344.88L213.503 342.513C217.914 342.392 221.584 345.867 221.705 350.278C221.826 354.688 218.351 358.362 213.94 358.483L118.995 361.096H118.769C114.448 361.092 110.91 357.649 110.789 353.327C110.692 349.856 110.953 346.382 111.562 342.965L47.3992 312.643L47.212 312.553C38.1095 307.943 27.0999 309.484 19.6158 316.414L154.301 403.54Z" fill="#FFDB1E"/>
</g>
<defs>
<clipPath id="clip0">
<rect width="429" height="429" fill="white" transform="matrix(-1 0 0 1 429 0)"/>
</clipPath>
</defs>
</svg>
