<?xml version="1.0" encoding="iso-8859-1"?>
<!-- Generator: Adobe Illustrator 19.0.0, SVG Export Plug-In . SVG Version: 6.00 Build 0)  -->
<svg version="1.1" id="Capa_1" xmlns="http://www.w3.org/2000/svg" xmlns:xlink="http://www.w3.org/1999/xlink" x="0px" y="0px"
	 viewBox="0 0 512 512" style="enable-background:new 0 0 512 512;" xml:space="preserve">
<g>
	<g>
		<path d="M104.094,322.392c-5.512,0-9.981,4.469-9.981,9.981V501.52c0,5.511,4.468,9.981,9.981,9.981s9.981-4.469,9.981-9.981
			V332.373C114.074,326.862,109.606,322.392,104.094,322.392z"/>
	</g>
</g>
<g>
	<g>
		<path d="M504.557,20.123c4.282-1.124,7.443-5.009,7.443-9.643c0-5.511-4.468-9.981-9.981-9.981H10.979
			c-5.512,0-9.981,4.469-9.981,9.981s4.468,9.98,9.981,9.98h177.023c-3.946,6.391-6.23,13.911-6.23,21.957
			c0,15.875,8.871,29.716,21.915,36.829c-9.179,27.601-32.627,47.749-60.791,53.039c4.567-7.145,7.227-15.622,7.227-24.713v-6.554
			c0-25.381-20.649-46.029-46.03-46.029c-25.381,0-46.03,20.648-46.03,46.029v6.554c0,9.687,3.015,18.68,8.145,26.102H47.724
			C21.409,133.676,0,155.084,0,181.399v113.553c0,17.339,14.106,31.446,31.446,31.446c5.512,0,9.981-4.469,9.981-9.981
			s-4.468-9.98-9.981-9.98c-6.333,0-11.485-5.152-11.485-11.485V181.399c0-15.308,12.455-27.762,27.763-27.762h80.392
			c43.613,0,81.834-28.229,94.907-69.318c0.223,0.004,0.443,0.017,0.667,0.017c6.825,0,13.268-1.65,18.968-4.556
			c-9.517,42.31-42.08,76.419-84.278,87.687c-4.367,1.166-7.406,5.122-7.406,9.642v93.888H57.704v-84.828
			c0-5.511-4.468-9.981-9.98-9.981c-5.512,0-9.981,4.469-9.981,9.981v94.809c0,5.511,4.468,9.98,9.981,9.98h1.178V501.52
			c0,5.511,4.468,9.981,9.981,9.981c5.512,0,9.98-4.469,9.98-9.981V290.957h70.624V501.52c0,5.511,4.468,9.981,9.981,9.981
			c5.512,0,9.98-4.469,9.98-9.981V290.957h1.507c5.512,0,9.98-4.469,9.98-9.981v-96.43c47.718-15.689,83.624-56.733,92.442-106.507
			c0.823-4.646-1.717-9.101-5.869-10.894c5.087-6.937,8.1-15.487,8.1-24.729c0-8.046-2.284-15.567-6.23-21.957h174.017
			c-3.946,6.391-6.23,13.911-6.23,21.957c0,15.875,8.871,29.716,21.915,36.829c-9.18,27.601-32.627,47.75-60.792,53.039
			c4.567-7.145,7.227-15.622,7.227-24.714v-6.554c0-25.381-20.649-46.029-46.03-46.029s-46.03,20.648-46.03,46.029v6.554
			c0,9.687,3.015,18.68,8.145,26.102h-18.484c-26.315,0-47.724,21.408-47.724,47.723V294.95c0,17.339,14.106,31.446,31.446,31.446
			c5.512,0,9.981-4.469,9.981-9.981s-4.468-9.98-9.981-9.98c-6.333,0-11.485-5.152-11.485-11.485V181.399
			c0-15.308,12.455-27.762,27.763-27.762h80.393c43.613,0,81.833-28.229,94.907-69.318c0.223,0.004,0.443,0.017,0.667,0.017
			c6.825,0,13.268-1.65,18.968-4.556c-9.517,42.31-42.081,76.419-84.278,87.687c-4.367,1.166-7.406,5.122-7.406,9.642v93.888h-93.27
			v-84.828c0-5.511-4.468-9.981-9.981-9.981c-5.512,0-9.98,4.469-9.98,9.981v94.809c0,5.511,4.468,9.98,9.98,9.98h1.179V501.52
			c0,5.511,4.468,9.981,9.981,9.981c5.512,0,9.98-4.469,9.98-9.981V290.957h70.623v74.829c0,5.511,4.468,9.981,9.981,9.981
			c5.512,0,9.98-4.469,9.98-9.981v-74.829h1.507c5.512,0,9.981-4.469,9.981-9.981v-96.43
			c47.719-15.689,83.625-56.733,92.442-106.507c0.823-4.646-1.717-9.101-5.869-10.894c5.086-6.937,8.099-15.486,8.099-24.729
			C511.002,34.227,508.633,26.585,504.557,20.123z M130.163,107.573c0,14.374-11.694,26.068-26.069,26.068
			s-26.069-11.694-26.069-26.068v-6.554c0-14.374,11.694-26.068,26.069-26.068s26.069,11.694,26.069,26.068V107.573z M223.69,64.374
			c-12.107,0-21.957-9.85-21.957-21.957s9.85-21.957,21.957-21.957s21.957,9.85,21.957,21.957S235.797,64.374,223.69,64.374z
			 M375.556,107.573c0,14.374-11.694,26.068-26.069,26.068c-14.375,0-26.069-11.694-26.069-26.068v-6.554
			c0-14.374,11.694-26.068,26.069-26.068c14.375,0,26.069,11.694,26.069,26.068V107.573z M469.084,64.374
			c-12.107,0-21.957-9.85-21.957-21.957s9.85-21.957,21.957-21.957s21.957,9.85,21.957,21.957S481.191,64.374,469.084,64.374z"/>
	</g>
</g>
<g>
	<g>
		<path d="M394.861,426.667c-5.512,0-9.981,4.469-9.981,9.98v64.873c0,5.511,4.468,9.981,9.981,9.981s9.981-4.469,9.981-9.981
			v-64.873C404.841,431.136,400.373,426.667,394.861,426.667z"/>
	</g>
</g>
<g>
	<g>
		<path d="M401.915,394.659c-1.856-1.856-4.421-2.924-7.056-2.924c-2.625,0-5.2,1.067-7.056,2.924
			c-1.856,1.856-2.924,4.431-2.924,7.056s1.068,5.2,2.924,7.055c1.856,1.857,4.431,2.925,7.056,2.925s5.2-1.068,7.056-2.925
			c1.856-1.855,2.924-4.43,2.924-7.055S403.771,396.516,401.915,394.659z"/>
	</g>
</g>
<g>
	<g>
		<path d="M349.614,322.392c-5.512,0-9.98,4.469-9.98,9.981V501.52c0,5.511,4.468,9.981,9.98,9.981c5.512,0,9.981-4.469,9.981-9.981
			V332.373C359.595,326.862,355.126,322.392,349.614,322.392z"/>
	</g>
</g>
<g>
</g>
<g>
</g>
<g>
</g>
<g>
</g>
<g>
</g>
<g>
</g>
<g>
</g>
<g>
</g>
<g>
</g>
<g>
</g>
<g>
</g>
<g>
</g>
<g>
</g>
<g>
</g>
<g>
</g>
</svg>
