<svg width="512" height="512" viewBox="0 0 512 512" fill="none" xmlns="http://www.w3.org/2000/svg">
<g clip-path="url(#clip0)">
<path d="M443.383 225.513C441.513 223.652 438.942 222.583 436.313 222.583C433.673 222.583 431.103 223.652 429.243 225.513C427.373 227.373 426.304 229.953 426.304 232.583C426.304 235.213 427.373 237.793 429.243 239.652C431.094 241.512 433.674 242.583 436.313 242.583C438.943 242.583 441.523 241.513 443.383 239.652C445.242 237.793 446.313 235.213 446.313 232.583C446.313 229.953 445.243 227.373 443.383 225.513Z" fill="#3C47AE"/>
<path d="M476.747 20.6609C470.036 10.4409 459.747 3.44589 447.775 0.965886C435.808 -1.51311 423.583 0.813886 413.364 7.52589C403.144 14.2369 396.149 24.5259 393.669 36.4979L392.605 41.6349C384.841 18.8319 363.23 2.37689 337.834 2.37689C305.932 2.37689 279.979 28.3309 279.979 60.2319V68.9329C279.979 85.5789 287.055 100.596 298.345 111.16C294.191 112.775 290.171 114.826 286.357 117.331C272.143 126.665 262.415 140.975 258.951 157.685L250.792 198.335L232.042 217.192H153.987C136.145 217.192 121.63 231.708 121.63 249.549C121.63 253.924 122.507 258.096 124.088 261.906H115.982C97.1899 261.906 80.7549 274.607 76.0169 292.794L64.2139 338.092C62.8209 343.437 66.0249 348.898 71.3689 350.29C72.2149 350.511 73.0619 350.616 73.8969 350.616C78.3379 350.615 82.3949 347.634 83.5669 343.135L95.3699 297.837C97.8139 288.457 106.291 281.906 115.982 281.906H262.473C265.143 281.906 267.702 280.839 269.579 278.941L320.203 227.799C324.089 223.874 324.057 217.542 320.132 213.657C316.206 209.77 309.875 209.803 305.99 213.728L258.301 261.905H153.987C147.174 261.905 141.63 256.361 141.63 249.548C141.63 242.735 147.174 237.191 153.987 237.191H236.201C238.863 237.191 241.415 236.129 243.292 234.242L300.533 176.672C304.428 172.756 304.409 166.424 300.493 162.529C296.576 158.636 290.245 158.652 286.351 162.57L276.348 172.631L278.546 161.682C280.912 150.263 287.585 140.449 297.334 134.047C307.082 127.646 318.74 125.423 330.154 127.791C341.573 130.157 351.387 136.829 357.788 146.576C364.189 156.324 366.411 167.98 364.045 179.399C364.029 179.474 364.024 179.548 364.01 179.623L338.94 300.595C336.068 314.45 323.713 324.507 309.564 324.507H167.402C143.955 324.507 124.315 342.566 121.893 365.497C121.699 365.952 121.525 366.419 121.397 366.912L90.7669 484.473C89.6129 488.904 85.6079 491.998 81.0289 491.998H57.8039C54.6629 491.998 51.7609 490.573 49.8409 488.088C47.9199 485.604 47.2739 482.436 48.0649 479.398L64.7659 415.297C66.1589 409.952 62.9539 404.491 57.6109 403.099C52.2649 401.703 46.8049 404.91 45.4129 410.254L28.7119 474.355C26.3469 483.433 28.2799 492.897 34.0169 500.319C39.7529 507.742 48.4239 511.999 57.8049 511.999H81.0289C94.7099 511.999 106.673 502.753 110.121 489.516L133.317 400.486C133.776 400.996 134.243 401.501 134.727 401.995C143.491 410.928 155.659 416.051 168.11 416.051H216.788L182.589 498.155C181.304 501.241 181.646 504.765 183.5 507.548C185.354 510.329 188.477 512 191.82 512H346.083C349.427 512 352.549 510.329 354.403 507.548C356.257 504.766 356.599 501.241 355.314 498.155L321.115 416.051H371.244C392.834 416.051 411.682 400.707 416.062 379.568L437.953 273.935C439.074 268.527 435.599 263.235 430.19 262.114C424.786 260.999 419.49 264.468 418.369 269.877L396.478 375.511C394.012 387.413 383.399 396.052 371.243 396.052H168.109C160.994 396.052 154.03 393.114 149.003 387.989C144.122 383.014 141.506 376.546 141.635 369.774C141.902 355.842 153.461 344.507 167.403 344.507H309.566C333.149 344.507 353.739 327.746 358.525 304.654L413.254 40.5549C414.65 33.8139 418.589 28.0209 424.343 24.2419C430.098 20.4649 436.98 19.1539 443.719 20.5499C450.46 21.9459 456.253 25.8849 460.032 31.6389C463.81 37.3929 465.122 44.2749 463.724 51.0149L434.011 194.395C432.89 199.803 436.365 205.095 441.774 206.216C447.18 207.337 452.475 203.862 453.595 198.453L483.308 55.0729C485.788 43.1009 483.459 30.8809 476.747 20.6609ZM299.448 416.05L331.084 491.999H206.817L238.453 416.05H299.448ZM337.833 106.787C316.959 106.787 299.978 89.8049 299.978 68.9319V60.2309C299.978 39.3569 316.96 22.3749 337.833 22.3749C358.707 22.3749 375.688 39.3569 375.688 60.2309V68.9319C375.689 89.8049 358.707 106.787 337.833 106.787ZM373.449 134.074C370.14 129.335 366.275 125.116 361.934 121.509C368.08 118.68 373.651 114.813 378.413 110.121L373.449 134.074Z" fill="#3C47AE"/>
<path d="M71.947 368.141C70.088 366.282 67.508 365.211 64.877 365.211C62.247 365.211 59.667 366.281 57.808 368.141C55.948 370.011 54.877 372.581 54.877 375.211C54.877 377.851 55.947 380.421 57.808 382.281C59.667 384.15 62.247 385.211 64.877 385.211C67.508 385.211 70.077 384.15 71.947 382.281C73.807 380.43 74.877 377.85 74.877 375.211C74.877 372.581 73.808 370.001 71.947 368.141Z" fill="#3C47AE"/>
</g>
<defs>
<clipPath id="clip0">
<rect width="512" height="512" fill="white"/>
</clipPath>
</defs>
</svg>
