<svg height="682pt" viewBox="-58 -21 682 682.66669" width="682pt" xmlns="http://www.w3.org/2000/svg"><path d="m109.835938 149.332031c32.398437 0 58.667968-26.265625 58.667968-58.664062 0-32.402344-26.269531-58.667969-58.667968-58.667969-32.402344 0-58.667969 26.265625-58.667969 58.667969.035156 32.382812 26.28125 58.628906 58.667969 58.664062zm0-95.996093c20.613281 0 37.328124 16.710937 37.328124 37.332031 0 20.617187-16.714843 37.332031-37.328124 37.332031-20.621094 0-37.335938-16.714844-37.335938-37.332031 0-20.621094 16.714844-37.332031 37.335938-37.332031zm0 0"/><path d="m29.835938 362.664062c6.371093.011719 12.597656-1.898437 17.875-5.472656 1.148437 1.019532 2.402343 1.914063 3.746093 2.65625-.160156.933594-.257812 1.875-.289062 2.816406v240c.011719 15.167969 9.191406 28.820313 23.234375 34.542969 14.042968 5.726563 30.148437 2.394531 40.765625-8.4375 10.609375 10.832031 26.722656 14.164063 40.765625 8.4375 14.039062-5.722656 23.222656-19.375 23.234375-34.542969v-240c-.03125-.941406-.128907-1.882812-.289063-2.816406 6.738282-3.722656 10.933594-10.816406 10.957032-18.515625v-117.332031h42.664062c17.671875 0 32-14.328125 32-32v-74.664062c-.035156-1.96875-.261719-3.921876-.660156-5.847657 7.988281-5.613281 12.324218-15.105469 11.328125-24.824219.511719-20.445312-12.519531-38.777343-32.003907-45.007812v-30.988281c0-5.894531-4.773437-10.667969-10.664062-10.667969s-10.667969 4.773438-10.667969 10.667969v30.988281c-19.476562 6.230469-32.515625 24.5625-31.996093 45.007812-.992188 9.695313 3.320312 19.164063 11.273437 24.789063-.386719 1.941406-.589844 3.90625-.609375 5.882813v42.664062h-53.335938c-6.703124.03125-13.011718 3.1875-17.066406 8.535156l-14.929687 19.882813-14.933594-19.882813c-4.046875-5.351562-10.359375-8.511718-17.070313-8.535156h-31.996093c-29.441407.035156-53.300781 23.890625-53.335938 53.335938v117.332031c0 17.671875 14.328125 31.996093 32.003907 31.996093zm127.996093 240c0 8.839844-7.160156 16.003907-16 16.003907-8.835937 0-16-7.164063-16-16.003907v-165.328124c0-5.894532-4.777343-10.671876-10.664062-10.671876-5.894531 0-10.667969 4.777344-10.667969 10.671876v165.328124c0 8.839844-7.164062 16.003907-15.996094 16.003907-8.839844 0-16.003906-7.164063-16.003906-16.003907v-240h85.332031zm74.667969-541.332031c12.832031 1.207031 22.324219 12.480469 21.335938 25.332031 0 7.726563 0 9.335938-21.335938 9.335938-5.300781.1875-10.605469-.105469-15.847656-.875h-.109375c-5.335938-1.132812-5.335938-3.5625-5.335938-8.4375-1.003906-12.84375 8.46875-24.125 21.292969-25.355469zm-213.332031 152.003907c0-17.675782 14.324219-32.003907 32-32.003907h31.996093l20.269532 26.933594c.714844.960937 1.207031 1.730469 1.558594 2.285156 1.917968 3.894531 5.878906 6.355469 10.21875 6.355469 4.335937 0 8.300781-2.460938 10.214843-6.355469.351563-.554687.84375-1.324219 1.519531-2.222656l20.21875-26.996094h64.003907c5.890625 0 10.664062-4.773437 10.664062-10.664062v-53.332031c0-.074219 0-.152344 0-.234376 3.703125.222657 7.339844.234376 10.667969.234376s6.933594 0 10.664062-.234376v74.898438c0 5.890625-4.773437 10.664062-10.664062 10.664062h-53.332031c-5.890625 0-10.664063 4.777344-10.664063 10.671876v127.996093h-106.671875v-127.996093c0-5.894532-4.773437-10.671876-10.664062-10.671876-5.894531 0-10.667969 4.777344-10.667969 10.671876v117.332031c0 5.890625-4.777344 10.664062-10.664062 10.664062-5.894532 0-10.667969-4.773437-10.667969-10.664062zm0 0"/><path d="m397.832031 149.332031c32.402344 0 58.667969-26.265625 58.667969-58.664062 0-32.402344-26.265625-58.667969-58.667969-58.667969-32.402343 0-58.664062 26.265625-58.664062 58.667969.03125 32.382812 26.277343 58.628906 58.664062 58.664062zm0-95.996093c20.621094 0 37.335938 16.710937 37.335938 37.332031 0 20.617187-16.714844 37.332031-37.335938 37.332031-20.617187 0-37.332031-16.714844-37.332031-37.332031 0-9.902344 3.933594-19.398438 10.9375-26.402344 6.996094-7 16.492188-10.929687 26.394531-10.929687zm0 0"/><path d="m317.832031 362.664062c6.375.011719 12.605469-1.898437 17.878907-5.472656 1.144531 1.019532 2.402343 1.914063 3.742187 2.65625-.160156.933594-.257813 1.875-.285156 2.816406v240c.007812 15.167969 9.191406 28.820313 23.234375 34.542969 14.039062 5.726563 30.152344 2.394531 40.761718-8.4375 10.617188 10.832031 26.726563 14.164063 40.769532 8.4375 14.042968-5.722656 23.222656-19.375 23.230468-34.542969v-240c-.027343-.941406-.125-1.882812-.289062-2.816406 6.746094-3.722656 10.933594-10.816406 10.957031-18.515625v-117.332031h42.667969c17.675781 0 32-14.328125 32-32v-74.664062c-.039062-1.96875-.257812-3.921876-.664062-5.847657 7.996093-5.613281 12.324218-15.105469 11.328124-24.824219.515626-20.445312-12.519531-38.777343-31.996093-45.007812v-30.988281c0-5.894531-4.773438-10.667969-10.667969-10.667969-5.890625 0-10.664062 4.773438-10.664062 10.667969v30.988281c-19.484376 6.230469-32.515626 24.5625-32.003907 45.007812-.984375 9.695313 3.320313 19.164063 11.277344 24.789063-.386719 1.941406-.585937 3.90625-.605469 5.882813v42.664062h-53.335937c-6.710938.03125-13.019531 3.1875-17.066407 8.535156l-14.9375 19.882813-14.929687-19.882813c-4.046875-5.351562-10.355469-8.511718-17.066406-8.535156h-32c-29.441407.035156-53.296875 23.890625-53.335938 53.335938v117.332031c0 17.671875 14.332031 31.996093 32 31.996093zm128 240c0 8.839844-7.164062 16.003907-15.996093 16.003907-8.839844 0-16-7.164063-16-16.003907v-165.328124c0-5.894532-4.777344-10.671876-10.671876-10.671876-5.886718 0-10.664062 4.777344-10.664062 10.671876v165.328124c0 8.839844-7.160156 16.003907-16 16.003907-8.835938 0-16-7.164063-16-16.003907v-240h85.332031zm74.667969-541.332031c12.832031 1.207031 22.328125 12.480469 21.332031 25.332031 0 7.726563 0 9.335938-21.332031 9.335938-5.296875.1875-10.605469-.105469-15.851562-.875h-.105469c-5.332031-1.132812-5.332031-3.570312-5.332031-8.4375-1.007813-12.84375 8.464843-24.125 21.289062-25.355469zm-213.335938 152.003907c0-17.675782 14.332032-32.003907 32.003907-32.003907h32l20.265625 26.933594c.714844.960937 1.203125 1.730469 1.554687 2.285156 1.921875 3.894531 5.878907 6.355469 10.222657 6.355469 4.339843 0 8.300781-2.460938 10.21875-6.355469.351562-.554687.839843-1.324219 1.511718-2.222656l20.226563-26.996094h64c5.890625 0 10.667969-4.773437 10.667969-10.664062v-53.332031c0-.074219 0-.152344 0-.234376 3.699218.222657 7.339843.234376 10.664062.234376 3.328125 0 6.933594 0 10.667969-.234376v74.898438c0 5.890625-4.773438 10.664062-10.667969 10.664062h-53.335938c-5.886718 0-10.664062 4.777344-10.664062 10.671876v127.996093h-106.664062v-127.996093c0-5.894532-4.777344-10.671876-10.667969-10.671876s-10.664063 4.777344-10.664063 10.671876v117.332031c0 5.890625-4.78125 10.664062-10.671875 10.664062-5.886719 0-10.667969-4.773437-10.667969-10.664062zm0 0"/><path d="m264.5 458.667969v32h-21.335938c-5.886718 0-10.664062 4.777343-10.664062 10.664062v128c0 5.894531 4.777344 10.667969 10.664062 10.667969h64c5.894532 0 10.667969-4.773438 10.667969-10.667969v-128c0-5.886719-4.773437-10.664062-10.667969-10.664062h-21.332031v-32c0-5.894531-4.777343-10.667969-10.664062-10.667969-5.894531 0-10.667969 4.773438-10.667969 10.667969zm32 160h-42.664062v-106.667969h42.664062zm0 0"/></svg>