<svg width="512" height="512" viewBox="0 0 512 512" fill="none" xmlns="http://www.w3.org/2000/svg">
<path d="M271.784 464.567V438.23V403.534C271.784 399.391 268.427 396.034 264.284 396.034C260.141 396.034 256.784 399.391 256.784 403.534V430.73H222.085V338.833C222.085 334.69 218.727 331.333 214.585 331.333C210.442 331.333 207.085 334.69 207.085 338.833V430.73H172.382V305.856C172.382 305.804 172.386 305.754 172.386 305.702V280.067H256.785V373.534C256.785 377.677 260.142 381.034 264.285 381.034C268.428 381.034 271.785 377.677 271.785 373.534V272.567V272.566V180.668H330.552C343.822 180.668 354.618 169.872 354.618 156.602V97.833H371.967C376.109 97.833 379.467 94.476 379.467 90.333L379.469 57.201C379.469 43.93 368.672 33.134 355.402 33.134H338.052V7.5C338.052 3.357 334.695 0 330.552 0C326.409 0 323.052 3.357 323.052 7.5V33.134H305.7C292.43 33.134 281.633 43.931 281.633 57.201V90.333C281.633 94.476 284.99 97.833 289.133 97.833H306.485V132.534H297.458C297.445 132.534 297.432 132.532 297.419 132.532C297.406 132.532 297.393 132.534 297.38 132.534H264.285H264.284H253.154C264.595 122.068 271.785 107.026 271.785 90.335C271.785 58.795 246.126 33.136 214.586 33.136C183.046 33.136 157.387 58.795 157.387 90.335C157.387 107.027 164.576 122.068 176.018 132.534H164.926C164.913 132.534 164.9 132.532 164.887 132.532H148.32C135.049 132.532 124.254 143.329 124.254 156.599V206.26C124.254 206.273 124.252 206.286 124.252 206.299C124.252 206.312 124.254 206.325 124.254 206.338V305.702C124.254 318.973 135.05 329.768 148.32 329.768C151.525 329.768 154.584 329.133 157.383 327.991V438.23V464.567C138.551 468.099 124.252 484.654 124.252 504.495C124.252 508.638 127.609 511.995 131.752 511.995H214.584H214.585H297.417C301.56 511.995 304.917 508.638 304.917 504.495C304.916 484.653 290.616 468.098 271.784 464.567ZM256.784 445.73V463.861H222.085V445.73H256.784ZM207.083 445.73V463.861H172.382V445.73H207.083ZM172.386 147.534H185.985L208.585 177.667C210.001 179.556 212.225 180.667 214.585 180.667C216.945 180.667 219.169 179.556 220.585 177.667L243.185 147.534H256.785V173.148C256.785 173.155 256.784 173.161 256.784 173.167C256.784 173.174 256.785 173.18 256.785 173.186V265.065H172.386V147.534V147.534ZM224.435 147.534L214.585 160.667L204.735 147.534H224.435ZM271.784 147.534H289.918V165.668H271.784V147.534ZM296.632 82.833V57.201C296.632 52.201 300.699 48.134 305.699 48.134H355.4C360.4 48.134 364.467 52.201 364.467 57.201L364.465 82.833H354.616V82.051C354.616 68.78 343.82 57.984 330.55 57.984C317.279 57.984 306.483 68.781 306.483 82.051V82.833H296.632ZM339.617 82.833H321.483V82.051C321.483 77.051 325.55 72.984 330.55 72.984C335.549 72.984 339.616 77.051 339.616 82.051V82.833H339.617ZM313.983 147.534C318.126 147.534 321.483 144.177 321.483 140.034V97.833H339.617V156.602C339.617 161.601 335.55 165.668 330.551 165.668H304.918V147.534H313.983ZM172.386 90.335C172.386 67.066 191.317 48.136 214.585 48.136C237.853 48.136 256.784 67.067 256.784 90.335C256.784 113.604 237.853 132.534 214.585 132.534C191.316 132.534 172.386 113.604 172.386 90.335ZM148.318 147.532H157.385V198.8H139.251V156.6C139.252 151.6 143.319 147.532 148.318 147.532ZM148.318 314.769C143.319 314.769 139.252 310.702 139.252 305.703V213.8H157.386V272.49C157.386 272.516 157.382 272.541 157.382 272.567V305.779C157.34 310.742 153.292 314.769 148.318 314.769ZM140.37 496.995C143.583 486.511 153.351 478.867 164.873 478.862C164.876 478.862 164.879 478.863 164.882 478.863H207.083V496.996H140.37V496.995ZM222.084 496.995V478.862H264.284C264.287 478.862 264.29 478.861 264.294 478.861C275.815 478.866 285.584 486.511 288.797 496.994H222.084V496.995Z" fill="#3C47AE"/>
<path d="M380.25 381.031H362.899V355.4C362.899 351.257 359.542 347.9 355.399 347.9C351.256 347.9 347.899 351.257 347.899 355.4V381.031H330.549C326.406 381.031 323.049 384.388 323.049 388.531V504.5C323.049 508.643 326.406 512 330.549 512H380.249C384.392 512 387.749 508.643 387.749 504.5V388.531C387.75 384.389 384.393 381.031 380.25 381.031ZM355.341 396.031C355.361 396.031 355.38 396.034 355.399 396.034C355.418 396.034 355.437 396.031 355.457 396.031H372.75V463.868H338.05V396.031H355.341ZM338.05 497V478.868H372.75V497H338.05Z" fill="#3C47AE"/>
</svg>
