<?xml version="1.0" encoding="iso-8859-1"?>
<!-- Generator: Adobe Illustrator 21.0.0, SVG Export Plug-In . SVG Version: 6.00 Build 0)  -->
<svg xmlns="http://www.w3.org/2000/svg" xmlns:xlink="http://www.w3.org/1999/xlink" version="1.1" id="Capa_1" x="0px" y="0px" viewBox="0 0 512 512" style="enable-background:new 0 0 512 512;" xml:space="preserve" width="512" height="512">
<g>
	<path d="M271.784,464.567V438.23v-34.696c0-4.143-3.357-7.5-7.5-7.5c-4.143,0-7.5,3.357-7.5,7.5v27.196h-34.699v-91.897   c0-4.143-3.358-7.5-7.5-7.5c-4.143,0-7.5,3.357-7.5,7.5v91.897h-34.703V305.856c0-0.052,0.004-0.102,0.004-0.154v-25.635h84.399   v93.467c0,4.143,3.357,7.5,7.5,7.5c4.143,0,7.5-3.357,7.5-7.5V272.567v-0.001c0,0,0,0,0,0v-91.898h58.767   c13.27,0,24.066-10.796,24.066-24.066V97.833h17.349c4.142,0,7.5-3.357,7.5-7.5l0.002-33.132c0-13.271-10.797-24.067-24.067-24.067   h-17.35V7.5c0-4.143-3.357-7.5-7.5-7.5c-4.143,0-7.5,3.357-7.5,7.5v25.634h-17.352c-13.27,0-24.067,10.797-24.067,24.067v33.132   c0,4.143,3.357,7.5,7.5,7.5h17.352v34.701h-9.027c-0.013,0-0.026-0.002-0.039-0.002c-0.013,0-0.026,0.002-0.039,0.002h-33.095   h-0.001h-11.13c11.441-10.466,18.631-25.508,18.631-42.199c0-31.54-25.659-57.199-57.199-57.199   c-31.54,0-57.199,25.659-57.199,57.199c0,16.692,7.189,31.733,18.631,42.199h-11.092c-0.013,0-0.026-0.002-0.039-0.002h-16.567   c-13.271,0-24.066,10.797-24.066,24.067v49.661c0,0.013-0.002,0.026-0.002,0.039c0,0.013,0.002,0.026,0.002,0.039v99.364   c0,13.271,10.796,24.066,24.066,24.066c3.205,0,6.264-0.635,9.063-1.777V438.23v26.337c-18.832,3.532-33.131,20.087-33.131,39.928   c0,4.143,3.357,7.5,7.5,7.5h82.832h0.001c0,0,0,0,0,0h82.832c4.143,0,7.5-3.357,7.5-7.5   C304.916,484.653,290.616,468.098,271.784,464.567z M256.784,445.73v18.131h-34.699V445.73H256.784z M207.083,445.73v18.131   h-34.701V445.73H207.083z M172.386,147.534h13.599l22.6,30.133c1.416,1.889,3.64,3,6,3c2.36,0,4.584-1.111,6-3l22.6-30.133h13.6   v25.614c0,0.007-0.001,0.013-0.001,0.019c0,0.007,0.001,0.013,0.001,0.019v91.879h-84.399V147.534z M224.435,147.534l-9.85,13.133   l-9.85-13.133H224.435z M271.784,147.534h18.134v18.134h-18.134V147.534z M296.632,82.833V57.201c0-5,4.067-9.067,9.067-9.067   H355.4c5,0,9.067,4.067,9.067,9.067l-0.002,25.632h-9.849v-0.782c0-13.271-10.796-24.067-24.066-24.067   c-13.271,0-24.067,10.797-24.067,24.067v0.782H296.632z M339.617,82.833h-18.134v-0.782c0-5,4.067-9.067,9.067-9.067   c4.999,0,9.066,4.067,9.066,9.067V82.833z M313.983,147.534c4.143,0,7.5-3.357,7.5-7.5V97.833h18.134v58.769   c0,4.999-4.067,9.066-9.066,9.066h-25.633v-18.134H313.983z M172.386,90.335c0-23.269,18.931-42.199,42.199-42.199   c23.268,0,42.199,18.931,42.199,42.199c0,23.269-18.931,42.199-42.199,42.199C191.316,132.534,172.386,113.604,172.386,90.335z    M148.318,147.532h9.067V198.8h-18.134v-42.2C139.252,151.6,143.319,147.532,148.318,147.532z M148.318,314.769   c-4.999,0-9.066-4.067-9.066-9.066V213.8h18.134v58.69c0,0.026-0.004,0.051-0.004,0.077v33.212   C157.34,310.742,153.292,314.769,148.318,314.769z M140.37,496.995c3.213-10.484,12.981-18.128,24.503-18.133   c0.003,0,0.006,0.001,0.009,0.001h42.201v18.133H140.37z M222.084,496.995v-18.133h42.2c0.003,0,0.006-0.001,0.01-0.001   c11.521,0.005,21.29,7.65,24.503,18.133H222.084z"/>
	<path d="M380.25,381.031h-17.351V355.4c0-4.143-3.357-7.5-7.5-7.5c-4.143,0-7.5,3.357-7.5,7.5v25.631h-17.35   c-4.143,0-7.5,3.357-7.5,7.5V504.5c0,4.143,3.357,7.5,7.5,7.5h49.7c4.143,0,7.5-3.357,7.5-7.5V388.531   C387.75,384.389,384.393,381.031,380.25,381.031z M355.341,396.031c0.02,0,0.039,0.003,0.058,0.003s0.038-0.003,0.058-0.003h17.293   v67.837h-34.7v-67.837H355.341z M338.05,497v-18.132h34.7V497H338.05z"/>
</g>















</svg>
