<svg width="276" height="276" viewBox="0 0 276 276" fill="none" xmlns="http://www.w3.org/2000/svg">
<g clip-path="url(#clip0)">
<path d="M191.344 20.922L96.1886 116.077C95.4326 116.833 94.8916 117.776 94.6236 118.811L86.4566 150.265C85.9226 152.324 86.5176 154.511 88.0216 156.016C89.1616 157.155 90.6926 157.773 92.2636 157.773C92.7666 157.773 93.2726 157.71 93.7716 157.581L125.226 149.413C126.261 149.144 127.205 148.603 127.96 147.848L223.113 52.695C223.115 52.693 223.117 52.692 223.118 52.691C223.119 52.69 223.121 52.687 223.122 52.686L242.278 33.53C244.622 31.187 244.622 27.388 242.279 25.046L218.994 1.758C217.868 0.632 216.343 0 214.751 0C213.16 0 211.634 0.632 210.509 1.758L191.354 20.913C191.352 20.915 191.35 20.916 191.349 20.917C191.348 20.918 191.346 20.921 191.344 20.922ZM120.631 138.208L100.638 143.4L105.829 123.407L195.591 33.645L210.392 48.447L120.631 138.208ZM214.751 14.485L229.552 29.287L218.877 39.962L204.076 25.16L214.751 14.485Z" fill="black"/>
<path d="M238.037 65.022C234.724 65.022 232.037 67.709 232.037 71.022V263.835H43.7988V34.417H154.862C158.175 34.417 160.862 31.73 160.862 28.417C160.862 25.104 158.175 22.417 154.862 22.417H37.7988C34.4858 22.417 31.7988 25.104 31.7988 28.417V269.836C31.7988 273.149 34.4858 275.836 37.7988 275.836H238.037C241.35 275.836 244.037 273.149 244.037 269.836V71.022C244.037 67.709 241.351 65.022 238.037 65.022Z" fill="black"/>
</g>
<defs>
<clipPath id="clip0">
<rect width="275.836" height="275.836" fill="white"/>
</clipPath>
</defs>
</svg>
