<svg width="512" height="512" viewBox="0 0 512 512" fill="none" xmlns="http://www.w3.org/2000/svg">
<g clip-path="url(#clip0)">
<path d="M363.788 53.8936C329.612 53.8936 301.809 81.6966 301.809 115.873C301.809 120.338 305.427 123.957 309.893 123.957C314.359 123.957 317.977 120.337 317.977 115.873C317.977 90.6126 338.527 70.0626 363.787 70.0626C389.047 70.0626 409.597 90.6126 409.597 115.873C409.597 141.133 389.047 161.683 363.787 161.683C359.321 161.683 355.703 165.303 355.703 169.767V205.696C355.703 210.161 359.321 213.78 363.787 213.78C368.253 213.78 371.871 210.16 371.871 205.696V177.326C402.242 173.353 425.766 147.308 425.766 115.872C425.767 81.6976 397.964 53.8936 363.788 53.8936Z" fill="white"/>
<path d="M363.788 255.999C369.741 255.999 374.567 251.173 374.567 245.22C374.567 239.267 369.741 234.441 363.788 234.441C357.835 234.441 353.009 239.267 353.009 245.22C353.009 251.173 357.835 255.999 363.788 255.999Z" fill="white"/>
<path d="M105.094 331.452C117 331.452 126.652 321.8 126.652 309.894C126.652 297.988 117 288.336 105.094 288.336C93.188 288.336 83.5361 297.988 83.5361 309.894C83.5361 321.8 93.188 331.452 105.094 331.452Z" fill="white"/>
<path d="M169.767 331.452C181.673 331.452 191.325 321.8 191.325 309.894C191.325 297.988 181.673 288.336 169.767 288.336C157.861 288.336 148.209 297.988 148.209 309.894C148.209 321.8 157.861 331.452 169.767 331.452Z" fill="white"/>
<path d="M465.349 46.4854C435.542 16.7214 395.934 0.213417 353.82 0.00241659C311.609 -0.176583 271.569 16.3374 241.163 46.5934C229.233 58.4654 219.415 71.8314 211.879 86.2364C211.866 86.2364 211.853 86.2344 211.84 86.2344H211.799C155.41 86.5164 102.375 108.62 62.4631 148.474C22.5561 188.324 0.373118 241.317 0.00511751 297.694C-0.365882 354.422 21.5741 407.954 61.7821 448.425C102.509 489.422 156.773 511.999 214.578 511.999H394.554C399.873 511.999 404.556 508.796 406.484 503.838C408.411 498.884 407.126 493.362 403.208 489.77C397.339 484.388 388.396 475.944 379.12 466.276C370.522 457.312 369.937 443.336 377.762 433.768C408.526 396.148 425.546 348.687 425.757 300.03C440.382 292.435 453.903 282.538 465.858 270.505C495.887 240.279 512.273 200.296 511.996 157.926C511.72 115.824 495.153 76.2464 465.349 46.4854ZM454.388 259.111C427.032 286.646 390.586 301.81 351.761 301.81H230.759C233.835 298.829 237.212 295.466 240.652 291.88C251.898 280.157 252.645 261.86 242.39 249.319C225.532 228.704 214.828 203.681 211.396 177.413C210.872 173.403 207.438 170.416 203.394 170.416C198.523 170.416 194.736 174.696 195.369 179.526C199.193 208.76 211.109 236.609 229.874 259.554C234.958 265.772 234.576 274.858 228.985 280.687C222.33 287.624 215.903 293.707 211.596 297.661C208.022 300.943 206.614 306.099 208.377 310.619C210.122 315.089 214.347 317.978 219.146 317.978H351.76C371.799 317.978 391.267 314.338 409.421 307.381C407.627 349.727 392.103 390.69 365.246 423.534C352.251 439.424 353.199 462.611 367.452 477.47C374.122 484.423 380.617 490.755 385.988 495.831H214.577C161.111 495.831 110.921 474.948 73.2511 437.031C36.1001 399.637 15.8291 350.191 16.1721 297.801C16.8581 193.075 100.655 107.023 204.471 102.596C200.082 113.995 197.036 125.895 195.409 138.103C194.767 142.929 198.563 147.207 203.432 147.207H203.441C207.473 147.207 210.906 144.237 211.439 140.241C215.554 109.384 229.793 80.7144 252.566 58.0554C279.729 31.0274 315.379 16.1694 353.023 16.1694C353.261 16.1694 353.499 16.1704 353.739 16.1714C431.577 16.5604 495.317 80.1994 495.826 158.033C496.077 196.065 481.36 231.962 454.388 259.111Z" fill="white"/>
</g>
<defs>
<clipPath id="clip0">
<rect width="511.999" height="511.999" fill="white"/>
</clipPath>
</defs>
</svg>
