<svg width="512" height="512" viewBox="0 0 512 512" fill="none" xmlns="http://www.w3.org/2000/svg">
<path d="M172.856 369.486H287.744C293.029 369.486 297.314 373.771 297.313 379.057C297.313 384.343 293.029 388.628 287.744 388.628H172.856C167.571 388.628 163.287 384.343 163.287 379.057C163.287 373.771 167.571 369.486 172.856 369.486Z" fill="#3C47AE" stroke="black"/>
<path d="M129.196 440.259C123.911 440.259 119.627 435.974 119.627 430.688C119.627 425.402 123.911 421.117 129.196 421.117H185.408C190.693 421.117 194.977 425.402 194.977 430.688C194.977 435.974 190.693 440.259 185.408 440.259H129.196Z" fill="#3C47AE" stroke="black"/>
<path d="M275.193 440.259C269.909 440.259 265.624 435.974 265.624 430.688C265.624 425.402 269.909 421.117 275.193 421.117H331.405C336.689 421.117 340.974 425.402 340.974 430.688C340.974 435.974 336.69 440.259 331.405 440.259H275.193Z" fill="#3C47AE" stroke="black"/>
<path d="M220.632 430.688C220.632 425.402 224.916 421.117 230.201 421.117H230.399C235.684 421.117 239.968 425.402 239.968 430.688C239.968 435.974 235.684 440.259 230.399 440.259H230.201C224.916 440.259 220.632 435.974 220.632 430.688Z" fill="#3C47AE" stroke="black"/>
<path d="M35.3802 156.464C35.3802 161.75 31.0959 166.035 25.8112 166.035C20.5264 166.035 16.2422 161.75 16.2422 156.464V156.265C16.2422 150.979 20.5264 146.694 25.8112 146.694C31.0959 146.694 35.3802 150.979 35.3802 156.265V156.464Z" fill="#3C47AE" stroke="black"/>
<mask id="path-6-inside-1" fill="white">
<path d="M484.409 397.297L439.165 352.054V97.039C439.165 96.717 439.147 96.397 439.116 96.078C439.103 95.944 439.08 95.813 439.063 95.681C439.039 95.502 439.015 95.324 438.982 95.147C438.951 94.987 438.912 94.83 438.874 94.673C438.839 94.529 438.804 94.385 438.763 94.243C438.715 94.077 438.661 93.914 438.604 93.751C438.559 93.621 438.512 93.491 438.462 93.362C438.399 93.201 438.332 93.042 438.26 92.885C438.202 92.757 438.14 92.63 438.077 92.504C438.002 92.356 437.925 92.208 437.843 92.064C437.768 91.932 437.688 91.804 437.607 91.675C437.524 91.544 437.443 91.413 437.354 91.286C437.258 91.149 437.156 91.016 437.053 90.883C436.967 90.772 436.883 90.66 436.793 90.552C436.768 90.522 436.747 90.491 436.722 90.461L361.754 3.495C361.69 3.421 361.617 3.356 361.551 3.284C361.407 3.127 361.262 2.971 361.108 2.823C361.005 2.724 360.899 2.63 360.792 2.536C360.639 2.401 360.484 2.269 360.323 2.143C360.213 2.057 360.101 1.974 359.988 1.892C359.816 1.769 359.64 1.652 359.461 1.539C359.352 1.471 359.243 1.403 359.132 1.339C358.934 1.226 358.731 1.121 358.525 1.021C358.423 0.972 358.324 0.92 358.221 0.874C357.994 0.773 357.762 0.684 357.527 0.6C357.436 0.567 357.348 0.531 357.257 0.501C357.005 0.419 356.747 0.351 356.487 0.288C356.406 0.268 356.326 0.243 356.245 0.226C355.972 0.167 355.693 0.125 355.412 0.09C355.34 0.081 355.269 0.065 355.197 0.057C354.845 0.021 354.489 0 354.128 0H60.7732C35.9432 0 15.7422 20.217 15.7422 45.068V111.378C15.7422 116.94 20.2502 121.449 25.8112 121.449C31.3722 121.449 35.8802 116.94 35.8802 111.378V45.068C35.8802 31.323 47.0472 20.142 60.7732 20.142H344.059V85.053C344.059 97.216 353.965 107.111 366.141 107.111H419.026V331.916L396.907 309.797C396.852 309.739 396.804 309.677 396.748 309.621C396.691 309.564 396.629 309.516 396.571 309.461L349.092 261.983C358.806 243.432 364.311 222.344 364.311 199.991C364.311 126.092 304.201 65.971 230.315 65.971C156.414 65.971 96.2922 126.092 96.2922 199.991C96.2922 235.264 109.991 267.392 132.338 291.351C132.798 291.966 133.33 292.529 133.929 293.031C158.318 318.298 192.511 334.04 230.316 334.04C252.656 334.04 273.731 328.535 292.271 318.822L339.733 366.302C339.79 366.362 339.839 366.426 339.898 366.484C339.956 366.542 340.02 366.591 340.079 366.648L419.027 445.627V466.933C419.027 480.678 407.86 491.859 394.134 491.859H60.7732C47.0472 491.859 35.8802 480.677 35.8802 466.933V201.153C35.8802 195.591 31.3722 191.082 25.8112 191.082C20.2502 191.082 15.7422 195.591 15.7422 201.153V466.932C15.7422 491.783 35.9432 512 60.7732 512H394.134C418.964 512 439.165 491.783 439.165 466.932V462.758C444.683 465.586 450.281 466.843 455.69 466.843C466.399 466.842 476.367 461.962 483.494 454.829C497.655 440.659 502.788 415.68 484.409 397.297ZM364.198 85.053V37.175L407.12 86.969H366.142C365.088 86.969 364.198 86.091 364.198 85.053ZM230.315 86.112C293.096 86.112 344.172 137.198 344.172 199.99C344.172 220.798 338.561 240.319 328.781 257.124C328.07 257.966 327.516 258.895 327.125 259.875C325.143 263.069 323.008 266.159 320.73 269.133C308.759 246.989 289.246 230.091 266.151 221.215C279.794 210.245 288.55 193.43 288.55 174.599C288.55 141.608 261.727 114.767 228.757 114.767C195.772 114.767 168.936 141.607 168.936 174.599C168.936 193.41 177.677 210.211 191.303 221.182C183.37 224.228 175.788 228.243 168.712 233.214C156.051 242.11 145.663 253.526 138.084 266.729C124.47 247.96 116.429 224.898 116.429 199.989C116.429 137.198 167.518 86.112 230.315 86.112V86.112ZM189.073 174.6C189.073 152.715 206.875 134.91 228.756 134.91C250.622 134.91 268.411 152.715 268.411 174.6C268.411 196.47 250.623 214.262 228.756 214.262C206.875 214.262 189.073 196.469 189.073 174.6V174.6ZM152.333 282.923C166.122 253.655 196.058 234.403 228.756 234.403C262.407 234.403 292.7 254.468 306.063 284.952C301.133 289.356 295.818 293.338 290.177 296.841C289.185 297.235 288.245 297.796 287.394 298.517C270.602 308.291 251.101 313.897 230.314 313.897C200.169 313.897 172.726 302.117 152.333 282.923ZM324.089 295.642C324.781 295.109 325.393 294.494 325.916 293.815C330.308 289.337 334.39 284.555 338.125 279.5L375.378 316.752L347.025 345.111L309.781 307.852C314.834 304.116 319.614 300.034 324.089 295.642ZM469.251 440.589C462.783 447.062 452.173 450.284 441.797 439.918L361.263 359.353L389.619 330.992L421.789 363.162C421.916 363.295 422.045 363.425 422.179 363.552L470.169 411.541C480.484 421.858 475.272 434.565 469.251 440.589Z"/>
</mask>
<path d="M484.409 397.297L439.165 352.054V97.039C439.165 96.717 439.147 96.397 439.116 96.078C439.103 95.944 439.08 95.813 439.063 95.681C439.039 95.502 439.015 95.324 438.982 95.147C438.951 94.987 438.912 94.83 438.874 94.673C438.839 94.529 438.804 94.385 438.763 94.243C438.715 94.077 438.661 93.914 438.604 93.751C438.559 93.621 438.512 93.491 438.462 93.362C438.399 93.201 438.332 93.042 438.26 92.885C438.202 92.757 438.14 92.63 438.077 92.504C438.002 92.356 437.925 92.208 437.843 92.064C437.768 91.932 437.688 91.804 437.607 91.675C437.524 91.544 437.443 91.413 437.354 91.286C437.258 91.149 437.156 91.016 437.053 90.883C436.967 90.772 436.883 90.66 436.793 90.552C436.768 90.522 436.747 90.491 436.722 90.461L361.754 3.495C361.69 3.421 361.617 3.356 361.551 3.284C361.407 3.127 361.262 2.971 361.108 2.823C361.005 2.724 360.899 2.63 360.792 2.536C360.639 2.401 360.484 2.269 360.323 2.143C360.213 2.057 360.101 1.974 359.988 1.892C359.816 1.769 359.64 1.652 359.461 1.539C359.352 1.471 359.243 1.403 359.132 1.339C358.934 1.226 358.731 1.121 358.525 1.021C358.423 0.972 358.324 0.92 358.221 0.874C357.994 0.773 357.762 0.684 357.527 0.6C357.436 0.567 357.348 0.531 357.257 0.501C357.005 0.419 356.747 0.351 356.487 0.288C356.406 0.268 356.326 0.243 356.245 0.226C355.972 0.167 355.693 0.125 355.412 0.09C355.34 0.081 355.269 0.065 355.197 0.057C354.845 0.021 354.489 0 354.128 0H60.7732C35.9432 0 15.7422 20.217 15.7422 45.068V111.378C15.7422 116.94 20.2502 121.449 25.8112 121.449C31.3722 121.449 35.8802 116.94 35.8802 111.378V45.068C35.8802 31.323 47.0472 20.142 60.7732 20.142H344.059V85.053C344.059 97.216 353.965 107.111 366.141 107.111H419.026V331.916L396.907 309.797C396.852 309.739 396.804 309.677 396.748 309.621C396.691 309.564 396.629 309.516 396.571 309.461L349.092 261.983C358.806 243.432 364.311 222.344 364.311 199.991C364.311 126.092 304.201 65.971 230.315 65.971C156.414 65.971 96.2922 126.092 96.2922 199.991C96.2922 235.264 109.991 267.392 132.338 291.351C132.798 291.966 133.33 292.529 133.929 293.031C158.318 318.298 192.511 334.04 230.316 334.04C252.656 334.04 273.731 328.535 292.271 318.822L339.733 366.302C339.79 366.362 339.839 366.426 339.898 366.484C339.956 366.542 340.02 366.591 340.079 366.648L419.027 445.627V466.933C419.027 480.678 407.86 491.859 394.134 491.859H60.7732C47.0472 491.859 35.8802 480.677 35.8802 466.933V201.153C35.8802 195.591 31.3722 191.082 25.8112 191.082C20.2502 191.082 15.7422 195.591 15.7422 201.153V466.932C15.7422 491.783 35.9432 512 60.7732 512H394.134C418.964 512 439.165 491.783 439.165 466.932V462.758C444.683 465.586 450.281 466.843 455.69 466.843C466.399 466.842 476.367 461.962 483.494 454.829C497.655 440.659 502.788 415.68 484.409 397.297ZM364.198 85.053V37.175L407.12 86.969H366.142C365.088 86.969 364.198 86.091 364.198 85.053ZM230.315 86.112C293.096 86.112 344.172 137.198 344.172 199.99C344.172 220.798 338.561 240.319 328.781 257.124C328.07 257.966 327.516 258.895 327.125 259.875C325.143 263.069 323.008 266.159 320.73 269.133C308.759 246.989 289.246 230.091 266.151 221.215C279.794 210.245 288.55 193.43 288.55 174.599C288.55 141.608 261.727 114.767 228.757 114.767C195.772 114.767 168.936 141.607 168.936 174.599C168.936 193.41 177.677 210.211 191.303 221.182C183.37 224.228 175.788 228.243 168.712 233.214C156.051 242.11 145.663 253.526 138.084 266.729C124.47 247.96 116.429 224.898 116.429 199.989C116.429 137.198 167.518 86.112 230.315 86.112V86.112ZM189.073 174.6C189.073 152.715 206.875 134.91 228.756 134.91C250.622 134.91 268.411 152.715 268.411 174.6C268.411 196.47 250.623 214.262 228.756 214.262C206.875 214.262 189.073 196.469 189.073 174.6V174.6ZM152.333 282.923C166.122 253.655 196.058 234.403 228.756 234.403C262.407 234.403 292.7 254.468 306.063 284.952C301.133 289.356 295.818 293.338 290.177 296.841C289.185 297.235 288.245 297.796 287.394 298.517C270.602 308.291 251.101 313.897 230.314 313.897C200.169 313.897 172.726 302.117 152.333 282.923ZM324.089 295.642C324.781 295.109 325.393 294.494 325.916 293.815C330.308 289.337 334.39 284.555 338.125 279.5L375.378 316.752L347.025 345.111L309.781 307.852C314.834 304.116 319.614 300.034 324.089 295.642ZM469.251 440.589C462.783 447.062 452.173 450.284 441.797 439.918L361.263 359.353L389.619 330.992L421.789 363.162C421.916 363.295 422.045 363.425 422.179 363.552L470.169 411.541C480.484 421.858 475.272 434.565 469.251 440.589Z" fill="#3C47AE" stroke="black" stroke-width="2" mask="url(#path-6-inside-1)"/>
</svg>
