<svg width="512" height="512" viewBox="0 0 512 512" fill="none" xmlns="http://www.w3.org/2000/svg">
<path d="M256 40.0098C250.462 40.0098 246.01 44.4698 246.01 49.9998C246.01 55.1468 249.882 59.4298 255 59.9378C260.925 60.5258 265.99 55.9108 265.99 49.9998C265.99 44.4618 261.53 40.0098 256 40.0098Z" fill="#3C47AE"/>
<path d="M456 60C428.43 60 406 37.57 406 10C406 4.478 401.522 0 396 0H116C110.478 0 106 4.478 106 10C106 37.57 83.57 60 56 60C50.478 60 46 64.478 46 70V233.19C46 360.367 128.895 474.325 253.128 511.579C254.065 511.859 255.032 512 256 512C256.968 512 257.937 511.859 258.873 511.578C380.415 475.119 466 363.149 466 233.19V70C466 64.478 461.522 60 456 60ZM446 233.19C446 352.638 369.779 456.082 256 491.543C143.128 456.365 66 351.984 66 233.19V79.288C96.611 74.89 120.89 50.611 125.288 20H386.712C391.11 50.611 415.389 74.89 446 79.288V233.19Z" fill="#3C47AE"/>
<path d="M420.012 92.49C399.158 83.357 382.643 66.842 373.51 45.988C371.916 42.35 368.322 40 364.35 40H295.98C290.458 40 285.98 44.478 285.98 50C285.98 55.522 290.458 60 295.98 60H358.027C368.592 80.681 385.319 97.407 406 107.973V233.19C406 331.053 347.251 415.493 256 449.294C164.749 415.492 106 331.053 106 233.19V107.973C126.681 97.407 143.407 80.681 153.973 60H216.02C221.542 60 226.02 55.522 226.02 50C226.02 44.478 221.542 40 216.02 40H147.65C143.678 40 140.084 42.351 138.49 45.988C129.357 66.842 112.842 83.357 91.988 92.49C88.351 94.084 86 97.679 86 101.65V233.19C86 340.403 152.311 433.843 252.664 469.356C253.743 469.738 254.871 469.929 256 469.929C257.129 469.929 258.257 469.738 259.336 469.356C359.605 433.873 426 340.49 426 233.19V101.65C426 97.678 423.649 94.084 420.012 92.49Z" fill="#3C47AE"/>
<path d="M256 146C206.374 146 166 186.374 166 236C166 285.626 206.374 326 256 326C305.626 326 346 285.626 346 236C346 186.374 305.626 146 256 146ZM256 306C217.402 306 186 274.598 186 236C186 197.402 217.402 166 256 166C294.598 166 326 197.402 326 236C326 274.598 294.598 306 256 306Z" fill="#3C47AE"/>
<path d="M303.071 208.928C299.165 205.024 292.835 205.024 288.928 208.928L246 251.857L233.071 238.929C229.165 235.025 222.835 235.025 218.928 238.929C215.023 242.834 215.023 249.166 218.928 253.072L238.928 273.072C240.882 275.023 243.44 276 246 276C248.56 276 251.118 275.023 253.071 273.071L303.071 223.071C306.976 219.166 306.976 212.834 303.071 208.928Z" fill="#3C47AE"/>
</svg>
