<svg width="480" height="480" viewBox="0 0 480 480" fill="none" xmlns="http://www.w3.org/2000/svg">
<path d="M448 0V129.367C448 131.492 447.16 133.531 445.656 135.031L408 172.688V144.594L436.297 116.297L424.984 104.984L382.082 147.879L376.418 142.223C374.914 140.723 374.07 138.688 374.07 136.562C374.07 134.441 374.914 132.406 376.418 130.902L395.391 111.938C399.856 107.465 402.32 101.379 402.223 95.0586C402.125 88.7422 399.477 82.7344 394.879 78.3984C385.883 69.7891 384.914 55.75 392.641 45.9844L406.238 28.9766L393.742 18.9766L380.145 36C377.313 39.5938 375.129 43.6562 373.695 48H351.449C351.871 47.3516 352.16 46.6406 352.649 46.0312L368 26.8008V0H352V21.1992L340.168 36C337.293 39.5859 335.07 43.6484 333.602 48H156.688L72.0001 132.688V284.688L23.0314 333.656C18.5118 338.148 15.9806 344.262 16.0001 350.633V480H32.0001V350.633C32.0001 348.508 32.84 346.469 34.3439 344.969L72.0001 307.312V335.406L43.7032 363.703L55.0157 375.016L97.922 332.121L103.586 337.777C105.086 339.277 105.93 341.312 105.93 343.438C105.93 345.559 105.086 347.594 103.586 349.098L84.6095 368.062C80.1446 372.535 77.6798 378.621 77.7775 384.941C77.8751 391.258 80.5236 397.266 85.1212 401.602C94.1173 410.211 95.0861 424.25 87.3595 434.016L73.7618 451.023L86.2579 461.023L99.8556 444.016C102.688 440.422 104.871 436.363 106.305 432.016H128.551C128.129 432.664 127.84 433.375 127.352 433.984L112 453.199V480H128V458.801L139.832 444C142.707 440.414 144.93 436.352 146.399 432H408V195.312L456.969 146.344C461.484 141.852 464.016 135.738 464 129.367V0H448ZM152 75.3125V128H99.3126L152 75.3125ZM108.391 416C107.68 406.082 103.293 396.781 96.09 389.93C94.6486 388.559 93.8204 386.668 93.7931 384.68C93.7657 382.691 94.5353 380.777 95.9376 379.367L114.914 360.406C124.262 351.023 124.262 335.848 114.914 326.465L109.238 320.801C103.473 315.09 94.3439 314.602 88.0001 319.664V144H168V64H371.609C372.32 73.918 376.707 83.2188 383.914 90.0703C385.352 91.4414 386.18 93.332 386.207 95.3203C386.234 97.3086 385.465 99.2227 384.063 100.633L365.09 119.594C355.738 128.977 355.738 144.152 365.09 153.535L370.762 159.199C376.496 164.98 385.68 165.469 392 160.336V416H108.391Z" fill="#3C47AE"/>
<path d="M152 208H184V224H152V208Z" fill="#3C47AE"/>
<path d="M200 208H328V224H200V208Z" fill="#3C47AE"/>
<path d="M152 160H184V176H152V160Z" fill="#3C47AE"/>
<path d="M200 160H328V176H200V160Z" fill="#3C47AE"/>
<path d="M152 256H184V272H152V256Z" fill="#3C47AE"/>
<path d="M200 256H280V272H200V256Z" fill="#3C47AE"/>
<path d="M296 352H328V368H296V352Z" fill="#3C47AE"/>
<path d="M152 352H280V368H152V352Z" fill="#3C47AE"/>
<path d="M296 304H328V320H296V304Z" fill="#3C47AE"/>
<path d="M296 256H328V272H296V256Z" fill="#3C47AE"/>
<path d="M152 304H280V320H152V304Z" fill="#3C47AE"/>
</svg>
