<svg width="512" height="512" viewBox="0 0 512 512" fill="none" xmlns="http://www.w3.org/2000/svg">
<path d="M187.733 315.733C187.733 320.443 191.556 324.266 196.266 324.266H230.4C235.11 324.266 238.933 320.443 238.933 315.733V264.533C238.933 259.823 235.11 256 230.4 256H196.267C191.557 256 187.734 259.823 187.734 264.533V315.733H187.733ZM204.8 273.067H221.867V307.2H204.8V273.067Z" fill="#3C47AE"/>
<path d="M196.267 221.867H230.4C235.11 221.867 238.933 218.044 238.933 213.334V162.134C238.933 157.424 235.11 153.601 230.4 153.601H196.267C191.557 153.601 187.734 157.424 187.734 162.134V213.334C187.733 218.044 191.556 221.867 196.267 221.867ZM204.8 170.667H221.867V204.8H204.8V170.667Z" fill="#3C47AE"/>
<path d="M132.395 160.913L256 86.75L379.605 160.913C380.979 161.741 382.498 162.133 383.991 162.133C386.892 162.133 389.717 160.657 391.313 157.994C393.745 153.949 392.431 148.71 388.395 146.286L264.533 71.97V17.067H307.2V34.134H281.6C276.89 34.134 273.067 37.957 273.067 42.667C273.067 47.377 276.89 51.2 281.6 51.2H315.733C320.443 51.2 324.266 47.377 324.266 42.667V8.533C324.266 3.823 320.443 0 315.733 0H256C251.29 0 247.467 3.823 247.467 8.533V71.97L123.606 146.287C119.57 148.71 118.256 153.95 120.688 157.995C123.102 162.031 128.358 163.345 132.395 160.913Z" fill="#3C47AE"/>
<path d="M93.8669 324.267C98.5769 324.267 102.4 320.444 102.4 315.734V264.534C102.4 259.824 98.5769 256.001 93.8669 256.001H59.733C55.023 256.001 51.2 259.824 51.2 264.534V281.6C51.2 286.31 55.023 290.133 59.733 290.133C64.443 290.133 68.2659 286.31 68.2659 281.6V273.067H85.333V315.734C85.333 320.444 89.1559 324.267 93.8669 324.267Z" fill="#3C47AE"/>
<path d="M153.6 435.2V187.733C153.6 183.023 149.777 179.2 145.067 179.2C140.357 179.2 136.534 183.023 136.534 187.733V435.2C136.534 439.91 140.357 443.733 145.067 443.733C149.777 443.733 153.6 439.91 153.6 435.2Z" fill="#3C47AE"/>
<path d="M110.933 477.867H401.066C405.776 477.867 409.599 474.044 409.599 469.334C409.599 464.624 405.776 460.801 401.066 460.801H324.266V375.468H332.799C337.509 375.468 341.332 371.645 341.332 366.935C341.332 362.225 337.509 358.402 332.799 358.402H179.2C174.49 358.402 170.667 362.225 170.667 366.935C170.667 371.645 174.49 375.468 179.2 375.468H187.733V460.8H110.933C106.223 460.8 102.4 464.623 102.4 469.333C102.4 474.043 106.223 477.867 110.933 477.867ZM264.533 426.667C269.243 426.667 273.066 422.844 273.066 418.134C273.066 413.424 269.243 409.601 264.533 409.601V375.468H307.2V460.8H264.533V426.667ZM204.8 375.467H247.467V409.6C242.757 409.6 238.934 413.423 238.934 418.133C238.934 422.843 242.757 426.666 247.467 426.666V460.8H204.8V375.467Z" fill="#3C47AE"/>
<path d="M452.267 366.933H418.134C413.424 366.933 409.601 370.756 409.601 375.466V426.666C409.601 431.376 413.424 435.199 418.134 435.199H452.267C456.977 435.199 460.8 431.376 460.8 426.666V375.466C460.8 370.756 456.977 366.933 452.267 366.933ZM443.733 418.133H426.666V384H443.733V418.133Z" fill="#3C47AE"/>
<path d="M452.267 264.533H418.134C413.424 264.533 409.601 268.356 409.601 273.066V324.266C409.601 328.976 413.424 332.799 418.134 332.799H452.267C456.977 332.799 460.8 328.976 460.8 324.266V273.066C460.8 268.356 456.977 264.533 452.267 264.533ZM443.733 315.733H426.666V281.6H443.733V315.733Z" fill="#3C47AE"/>
<path d="M435.2 494.933H76.8001C72.0901 494.933 68.2671 498.756 68.2671 503.466C68.2671 508.176 72.0901 512 76.8001 512H435.2C439.91 512 443.733 508.177 443.733 503.467C443.733 498.757 439.91 494.933 435.2 494.933Z" fill="#3C47AE"/>
<path d="M503.467 187.733C498.757 187.733 494.934 191.556 494.934 196.266V204.799H401.067C396.357 204.799 392.534 208.622 392.534 213.332C392.534 218.042 396.357 221.865 401.067 221.865H494.934V503.465C494.934 508.175 498.757 511.998 503.467 511.998C508.177 511.998 512 508.175 512 503.465V196.265C512 191.556 508.177 187.733 503.467 187.733Z" fill="#3C47AE"/>
<path d="M273.067 315.733C273.067 320.443 276.89 324.266 281.6 324.266H315.733C320.443 324.266 324.266 320.443 324.266 315.733V264.533C324.266 259.823 320.443 256 315.733 256H281.6C276.89 256 273.067 259.823 273.067 264.533V315.733ZM290.133 273.067H307.2V307.2H290.133V273.067Z" fill="#3C47AE"/>
<path d="M85.333 418.133C85.333 417.024 84.847 307.2 42.666 307.2C0.486 307.2 0 417.024 0 418.133C0 438.741 14.686 455.97 34.133 459.938V503.467C34.133 508.177 37.956 512 42.666 512C47.376 512 51.199 508.177 51.199 503.467V459.938C70.647 455.97 85.333 438.741 85.333 418.133ZM42.667 443.733C28.553 443.733 17.067 432.247 17.067 418.133C17.067 375.62 28.485 324.266 42.667 324.266C56.849 324.266 68.267 375.62 68.267 418.133C68.267 432.247 56.781 443.733 42.667 443.733Z" fill="#3C47AE"/>
<path d="M375.467 435.2V179.2C375.467 174.49 371.644 170.667 366.934 170.667C362.224 170.667 358.401 174.49 358.401 179.2V435.2C358.401 439.91 362.224 443.733 366.934 443.733C371.644 443.733 375.467 439.91 375.467 435.2Z" fill="#3C47AE"/>
<path d="M281.6 221.867H315.733C320.443 221.867 324.266 218.044 324.266 213.334V162.134C324.266 157.424 320.443 153.601 315.733 153.601H281.6C276.89 153.601 273.067 157.424 273.067 162.134V213.334C273.067 218.044 276.89 221.867 281.6 221.867ZM290.133 170.667H307.2V204.8H290.133V170.667Z" fill="#3C47AE"/>
<path d="M8.533 298.667C13.243 298.667 17.066 294.844 17.066 290.134V221.867H110.933C115.643 221.867 119.466 218.044 119.466 213.334C119.466 208.624 115.643 204.801 110.933 204.801H17.067V196.268C17.067 191.558 13.244 187.735 8.534 187.735C3.824 187.735 0 191.556 0 196.267V290.134C0 294.844 3.823 298.667 8.533 298.667Z" fill="#3C47AE"/>
</svg>
