<svg width="264" height="264" viewBox="0 0 264 264" fill="none" xmlns="http://www.w3.org/2000/svg">
<g clip-path="url(#clip0)">
<path d="M262.846 237.792L137.021 19.8579C135.949 18.0019 133.968 16.8579 131.825 16.8579C129.682 16.8579 127.7 18.0019 126.629 19.8579L0.804 237.792C-0.268 239.648 -0.268 241.936 0.804 243.792C1.876 245.648 3.857 246.792 6 246.792H257.65C259.794 246.792 261.775 245.648 262.846 243.792C263.917 241.936 263.918 239.649 262.846 237.792ZM16.392 234.792L131.825 34.8579L247.258 234.793H16.392V234.792Z" fill="#EA2626"/>
<path d="M121.491 106.734L125.824 183.138C125.991 186.151 128.4 188.623 131.484 188.798C134.798 188.986 137.636 186.452 137.824 183.138L142.157 106.734C142.178 106.351 142.179 105.954 142.157 105.562C141.833 99.8548 136.944 95.4908 131.238 95.8148C125.532 96.1388 121.168 101.027 121.491 106.734Z" fill="#EA2626"/>
<path d="M131.825 201.915C130.245 201.915 128.695 202.555 127.585 203.675C126.465 204.785 125.825 206.335 125.825 207.915C125.825 209.495 126.465 211.045 127.585 212.155C128.695 213.275 130.245 213.915 131.825 213.915C133.405 213.915 134.955 213.275 136.065 212.155C137.185 211.045 137.825 209.495 137.825 207.915C137.825 206.335 137.185 204.785 136.065 203.675C134.955 202.555 133.405 201.915 131.825 201.915Z" fill="#EA2626"/>
</g>
<defs>
<clipPath id="clip0">
<rect width="263.65" height="263.65" fill="white"/>
</clipPath>
</defs>
</svg>
