<svg width="264" height="231" viewBox="0 0 264 231" fill="none" xmlns="http://www.w3.org/2000/svg">
<path d="M262.846 221.792L137.021 3.85791C135.949 2.00191 133.968 0.85791 131.825 0.85791C129.682 0.85791 127.7 2.00191 126.629 3.85791L0.804 221.792C-0.268 223.648 -0.268 225.936 0.804 227.792C1.876 229.648 3.857 230.792 6 230.792H257.65C259.794 230.792 261.775 229.648 262.846 227.792C263.917 225.936 263.918 223.649 262.846 221.792ZM16.392 218.792L131.825 18.8579L247.258 218.793H16.392V218.792Z" fill="#3C47AE"/>
<path d="M121.491 90.7338L125.824 167.138C125.991 170.151 128.4 172.623 131.484 172.798C134.798 172.986 137.636 170.452 137.824 167.138L142.157 90.7338C142.178 90.3508 142.179 89.9538 142.157 89.5618C141.833 83.8548 136.944 79.4908 131.238 79.8148C125.532 80.1388 121.168 85.0268 121.491 90.7338Z" fill="#3C47AE"/>
<path d="M131.825 185.915C130.245 185.915 128.695 186.555 127.585 187.675C126.465 188.785 125.825 190.335 125.825 191.915C125.825 193.495 126.465 195.045 127.585 196.155C128.695 197.275 130.245 197.915 131.825 197.915C133.405 197.915 134.955 197.275 136.065 196.155C137.185 195.045 137.825 193.495 137.825 191.915C137.825 190.335 137.185 188.785 136.065 187.675C134.955 186.555 133.405 185.915 131.825 185.915Z" fill="#3C47AE"/>
</svg>
