<svg width="498" height="498" viewBox="0 0 498 498" fill="none" xmlns="http://www.w3.org/2000/svg">
<g clip-path="url(#clip0)">
<path d="M466.292 240C432.852 240 401.812 223.392 383.26 195.56L376.604 185.576L369.948 195.56C351.396 223.392 320.356 240 286.916 240H256.604V368.288C256.604 399.296 270.564 428.44 293.892 448H128.604V416H232.604V272H64.604V336H16.604V16H368.604V160H384.604V0H0.604004V347.312L117.292 464H318.484L376.604 497.208L444.204 458.584C476.524 440.12 496.604 405.512 496.604 368.288V240H466.292ZM112.604 436.688L27.916 352H112.604V436.688ZM80.604 336V288H216.604V400H128.604V336H80.604ZM480.604 368.288C480.604 399.792 463.612 429.064 436.268 444.696L376.604 478.792L316.94 444.696C289.596 429.064 272.604 399.792 272.604 368.288V256H286.916C321.956 256 354.724 240.28 376.604 213.456C398.484 240.28 431.252 256 466.292 256H480.604V368.288Z" fill="#3C47AE"/>
<path d="M448.604 320V368.288C448.604 388.336 437.788 406.968 420.388 416.912L428.324 430.8C450.7 418.016 464.604 394.064 464.604 368.288V320H448.604Z" fill="#3C47AE"/>
<path d="M48.604 32V80H336.604V32H48.604ZM320.604 64H64.604V48H320.604V64Z" fill="#3C47AE"/>
<path d="M442.948 274.344L336.604 380.688L310.26 354.344L298.948 365.656L336.604 403.312L454.26 285.656L442.948 274.344Z" fill="#3C47AE"/>
<path d="M200.604 304H96.604V320H200.604V304Z" fill="#3C47AE"/>
<path d="M200.604 336H144.604V352H200.604V336Z" fill="#3C47AE"/>
<path d="M200.604 368H144.604V384H200.604V368Z" fill="#3C47AE"/>
<path d="M304.604 112H48.604V128H304.604V112Z" fill="#3C47AE"/>
<path d="M304.604 144H48.604V160H304.604V144Z" fill="#3C47AE"/>
<path d="M304.604 176H48.604V192H304.604V176Z" fill="#3C47AE"/>
<path d="M200.604 208H48.604V224H200.604V208Z" fill="#3C47AE"/>
<path d="M200.604 240H48.604V256H200.604V240Z" fill="#3C47AE"/>
<path d="M336.604 112H320.604V128H336.604V112Z" fill="#3C47AE"/>
<path d="M336.604 144H320.604V160H336.604V144Z" fill="#3C47AE"/>
<path d="M336.604 176H320.604V192H336.604V176Z" fill="#3C47AE"/>
<path d="M232.604 208H216.604V224H232.604V208Z" fill="#3C47AE"/>
<path d="M232.604 240H216.604V256H232.604V240Z" fill="#3C47AE"/>
</g>
<defs>
<clipPath id="clip0">
<rect width="497.208" height="497.208" fill="white"/>
</clipPath>
</defs>
</svg>
